<svg id="linkedin_button" data-name="linkedin button" xmlns="http://www.w3.org/2000/svg" width="190" height="36" viewBox="0 0 190 36">
  <g id="Rectangle_14" data-name="Rectangle 14" fill="none" stroke="#3f9bc8" stroke-width="1">
    <rect width="190" height="36" rx="5" stroke="none"/>
    <rect x="0.5" y="0.5" width="189" height="35" rx="4.5" fill="none"/>
  </g>
  <g id="Group_314" data-name="Group 314" transform="translate(-792 -1595)">
    <path id="Path_1452" data-name="Path 1452" d="M-19.712-.72a4.715,4.715,0,0,1-.72.24A10.338,10.338,0,0,0-22.4.32a1.244,1.244,0,0,0-.736,1.1,1.833,1.833,0,0,0,.688,1.512,2.673,2.673,0,0,0,1.728.552h1.44V4.96H-20.4a5.288,5.288,0,0,1-3.168-.888A3.086,3.086,0,0,1-24.8,1.392,2.192,2.192,0,0,1-23.768-.48a9.862,9.862,0,0,1,2.5-1.216,7.669,7.669,0,0,1-2.368-3.36,2.813,2.813,0,0,1,1.5-1.752,5.519,5.519,0,0,1,2.56-.6,5.88,5.88,0,0,1,1.824.28,3.327,3.327,0,0,1,1.408.848,1.907,1.907,0,0,1,.544,1.368,2.76,2.76,0,0,1-.648,1.456,8.8,8.8,0,0,1-1.7,1.728,5.592,5.592,0,0,0,1.616.256h1.408V0h-1.5A6.81,6.81,0,0,1-19.712-.72Zm-2.256-4.432a4.248,4.248,0,0,0,.864,1.44,7.5,7.5,0,0,0,1.472,1.264A6.986,6.986,0,0,0-18.1-3.784,2.058,2.058,0,0,0-17.5-4.912a.9.9,0,0,0-.624-.808,3.444,3.444,0,0,0-1.488-.3,4.041,4.041,0,0,0-1.352.24A2.24,2.24,0,0,0-21.968-5.152Zm8.784,3.68a7.708,7.708,0,0,1-.272-2.16,4.6,4.6,0,0,1,.384-1.888A3.124,3.124,0,0,1-11.9-6.9a3.437,3.437,0,0,1,1.92-.512A2.68,2.68,0,0,1-7.608-6.272a5.087,5.087,0,0,1,.776,2.928A5.4,5.4,0,0,1-7.48-.664,2.269,2.269,0,0,1-9.632.5a3.111,3.111,0,0,1-.792-.112Q-10.848.272-11.776,0h-3.632V-1.472Zm1.424-2.064a8.677,8.677,0,0,0,.064,1.1,5.445,5.445,0,0,0,.24,1.024,5.119,5.119,0,0,0,1.712.4,1,1,0,0,0,.968-.7,4.307,4.307,0,0,0,.3-1.688,4.264,4.264,0,0,0-.368-1.816A1.265,1.265,0,0,0-10.08-6a1.386,1.386,0,0,0-1.256.68A3.333,3.333,0,0,0-11.76-3.536ZM6.256-7.408a3.193,3.193,0,0,1,1.72.472,3.278,3.278,0,0,1,1.192,1.3A4.037,4.037,0,0,1,9.6-3.744,6.07,6.07,0,0,1,9.28-1.7a2.8,2.8,0,0,0,.536.16,2.986,2.986,0,0,0,.6.064h.624V0h-.624A4.115,4.115,0,0,1,9.4-.152a3.545,3.545,0,0,1-1.032-.44,2.53,2.53,0,0,1-.848.456A3.985,3.985,0,0,1,6.384,0H-1.6V-1.472H-.512v-9.312H1.216v5.472h.048A10.617,10.617,0,0,1,3.5-6.768,6.118,6.118,0,0,1,6.256-7.408Zm.352,5.936a1.079,1.079,0,0,0,1.016-.616,3.3,3.3,0,0,0,.328-1.56A3.039,3.039,0,0,0,7.52-5.336,1.537,1.537,0,0,0,6.128-6a4.825,4.825,0,0,0-2.216.56,10.284,10.284,0,0,0-1.9,1.224,4.889,4.889,0,0,0-.8.728v2.016ZM15.04-7.328v4.5Q15.04,0,11.648,0h-.992V-1.472h.928a1.82,1.82,0,0,0,1.352-.4,1.7,1.7,0,0,0,.376-1.2V-7.328ZM13.232,2.528a.989.989,0,0,1-.3.752,1.094,1.094,0,0,1-.784.288.99.99,0,0,1-.728-.3,1.009,1.009,0,0,1-.3-.744.969.969,0,0,1,.3-.736,1.126,1.126,0,0,1,1.5,0A.969.969,0,0,1,13.232,2.528ZM15.36,2.4a5.939,5.939,0,0,0,.736.048q2.112,0,2.112-2.464V-6.448h1.728V-.592a4.693,4.693,0,0,1-1.12,3.552,3.984,3.984,0,0,1-2.784.944,9.621,9.621,0,0,1-1.088-.08Z" transform="translate(917 1617)" fill="#3f9bc8"/>
    <path id="Path_1451" data-name="Path 1451" d="M-34.02,0V-11.562h2.406v9.922H-26.4V0Zm9.3,0V-8.578H-22.4V0Zm0-10.023v-1.93H-22.4v1.93ZM-19.512,0V-8.578H-17.2v1.617a3.361,3.361,0,0,1,2.922-1.812,2.333,2.333,0,0,1,1.813.727A2.83,2.83,0,0,1-11.8-6.062V0h-2.312V-5.492q0-1.461-.969-1.461-1.1,0-2.117,1.555V0ZM-9,0V-12.336h2.313v7.758h.148l3.055-4h1.922l-2.82,3.672L-.684,0H-3.5L-6.543-4.289h-.148V0ZM8.105-.289A11.094,11.094,0,0,1,4.98.2,4.632,4.632,0,0,1,1.59-1.023,4.449,4.449,0,0,1,.348-4.352,4.5,4.5,0,0,1,1.484-7.559a3.921,3.921,0,0,1,3-1.215,3.176,3.176,0,0,1,2.75,1.188,6.441,6.441,0,0,1,.867,3.758H2.785a2.419,2.419,0,0,0,2.7,2.453,7.684,7.684,0,0,0,2.625-.539ZM2.754-5.133H5.832q0-2.2-1.414-2.2Q2.98-7.328,2.754-5.133ZM15.895,0V-1.617A2.942,2.942,0,0,1,13.09.2,2.911,2.911,0,0,1,10.66-.937a4.951,4.951,0,0,1-.883-3.117,5.455,5.455,0,0,1,1-3.437,3.214,3.214,0,0,1,2.676-1.281,3.448,3.448,0,0,1,2.445,1.063v-4.625h2.32V0Zm0-6.336a2.4,2.4,0,0,0-1.789-.937,1.54,1.54,0,0,0-1.359.82,4.156,4.156,0,0,0-.508,2.2q0,2.633,1.688,2.633a2.548,2.548,0,0,0,1.969-1.32ZM21.1,0V-11.562H23.5V0Zm5.3,0V-8.578h2.313v1.617a3.361,3.361,0,0,1,2.922-1.812,2.333,2.333,0,0,1,1.813.727,2.83,2.83,0,0,1,.664,1.984V0H31.8V-5.492q0-1.461-.969-1.461-1.1,0-2.117,1.555V0Z" transform="translate(852 1619)" fill="#3f9bc8"/>
    <path id="iconmonstr-linkedin-3" d="M12.667,0H3.333A3.334,3.334,0,0,0,0,3.333v9.333A3.334,3.334,0,0,0,3.333,16h9.333A3.333,3.333,0,0,0,16,12.667V3.333A3.333,3.333,0,0,0,12.667,0ZM5.333,12.667h-2V5.333h2Zm-1-8.179A1.176,1.176,0,1,1,5.5,3.312,1.172,1.172,0,0,1,4.333,4.488Zm9,8.179h-2V8.931c0-2.245-2.667-2.075-2.667,0v3.736h-2V5.333h2V6.51a2.536,2.536,0,0,1,4.667,1.651Z" transform="translate(942 1604.449)" fill="#3f9bc8"/>
  </g>
</svg>
