<svg xmlns="http://www.w3.org/2000/svg" width="32.024" height="25.059" viewBox="0 0 32.024 25.059"><defs><style>.a{fill:#3f9bc8;}</style></defs><path class="a" d="M0,16.374A18.23,18.23,0,0,1,1.176,9.725a19.185,19.185,0,0,1,2.94-5.2,13.4,13.4,0,0,1,3.89-3.347A8.354,8.354,0,0,1,12.032,0,2.307,2.307,0,0,1,13.8.724a2.225,2.225,0,0,1,.678,1.538,2.194,2.194,0,0,1-.5,1.538,4.49,4.49,0,0,1-1.855,1,8.4,8.4,0,0,0-1.809.9,12.515,12.515,0,0,0-1.9,1.493A11.366,11.366,0,0,0,6.785,9.137a6.83,6.83,0,0,0-1,2.262,7.48,7.48,0,0,1,1-.09h.9a6.65,6.65,0,0,1,3.166.678,6.785,6.785,0,0,1,2.081,1.674,6.36,6.36,0,0,1,1.176,2.171,7.189,7.189,0,0,1,.362,2.081,7.018,7.018,0,0,1-2.035,5.021,6.887,6.887,0,0,1-5.2,2.126,6.215,6.215,0,0,1-3.257-.814,7.193,7.193,0,0,1-2.216-2.035A9.327,9.327,0,0,1,.452,19.45,10.854,10.854,0,0,1,0,16.374Zm17.55,0a18.23,18.23,0,0,1,1.176-6.649,19.185,19.185,0,0,1,2.94-5.2,13.4,13.4,0,0,1,3.89-3.347A8.354,8.354,0,0,1,29.582,0a2.307,2.307,0,0,1,1.764.724,2.225,2.225,0,0,1,.678,1.538,2.194,2.194,0,0,1-.5,1.538,4.49,4.49,0,0,1-1.855,1,8.4,8.4,0,0,0-1.809.9,12.514,12.514,0,0,0-1.9,1.493,11.366,11.366,0,0,0-1.628,1.945,6.83,6.83,0,0,0-1,2.262,7.48,7.48,0,0,1,1-.09h.9a6.65,6.65,0,0,1,3.166.678,6.785,6.785,0,0,1,2.081,1.674,6.359,6.359,0,0,1,1.176,2.171,7.189,7.189,0,0,1,.362,2.081,7.018,7.018,0,0,1-2.035,5.021,6.887,6.887,0,0,1-5.2,2.126,6.215,6.215,0,0,1-3.257-.814,7.193,7.193,0,0,1-2.216-2.035A9.327,9.327,0,0,1,18,19.45,10.854,10.854,0,0,1,17.55,16.374Z"/></svg>