<svg id="kafaat-icon" data-name="Group 1254" xmlns="http://www.w3.org/2000/svg" width="17.911" height="15.358" viewBox="0 0 17.911 15.358">
  <path id="Path_65" data-name="Path 65" d="M53.652,189.253a23.857,23.857,0,0,0-4.744-4.556l6.141-.689a22.161,22.161,0,0,0-7.016-.72l3.241-3.785-.089-.1a23.177,23.177,0,0,0-4.719,3.5l-.5-4.345-.129,0a14.737,14.737,0,0,0-.674,3.838,19.334,19.334,0,0,0-4.811-1.774l-.075.13,4.087,2.768a30.561,30.561,0,0,0-7.23,2.1l.029.154,7.162-.625a26.463,26.463,0,0,0-4.479,7.059l.128.1,5.3-5.871a22.093,22.093,0,0,0,1.965,7.2l.2-.03-.714-8.481L53.52,189.4Z" transform="translate(-37.139 -178.28)"/>
  <path id="Path_66" data-name="Path 66" d="M52.742,330.128a1.312,1.312,0,0,0,.586-1.746,1.341,1.341,0,0,0-1.789-.3,1.317,1.317,0,0,0-.578,1.75A1.3,1.3,0,0,0,52.742,330.128Z" transform="translate(-50.056 -319.361)"/>
  <path id="Path_67" data-name="Path 67" d="M55.642,235.315a.915.915,0,0,0-.474-1.762,1.365,1.365,0,0,0-1.243.807.767.767,0,0,0,.239.9A1.337,1.337,0,0,0,55.642,235.315Z" transform="translate(-52.947 -230.242)"/>
  <path id="Path_68" data-name="Path 68" d="M294.748,219.608a1.278,1.278,0,0,0,1.624.458.765.765,0,0,0,.247-1.111,1.3,1.3,0,0,0-1.637-.413A.731.731,0,0,0,294.748,219.608Z" transform="translate(-280.403 -215.927)"/>
  <path id="Path_69" data-name="Path 69" d="M128.745,179.13a.723.723,0,0,0-.311,1.01,1.223,1.223,0,0,0,1.615.266.737.737,0,0,0,.283-1.055A1.226,1.226,0,0,0,128.745,179.13Z" transform="translate(-123.299 -178.643)"/>
  <path id="Path_70" data-name="Path 70" d="M220.532,173.731a.668.668,0,0,0-.279.932,1.235,1.235,0,0,0,1.566.369.666.666,0,0,0,.274-.969A1.184,1.184,0,0,0,220.532,173.731Z" transform="translate(-210.061 -173.571)"/>
</svg>
