<svg xmlns="http://www.w3.org/2000/svg" width="190" height="56.408" viewBox="0 0 190 56.408"><defs><style>.a{fill:#fff;}</style></defs><g transform="translate(-1035.899 -36)"><g transform="translate(1035.899 36)"><g transform="translate(0)"><path class="a" d="M405.6,167.625a5.759,5.759,0,0,1-2.747-.65,4.994,4.994,0,0,1-1.951-1.791,4.385,4.385,0,0,1-.345-.678,3.774,3.774,0,0,1-.225-.756,6.992,6.992,0,0,1-.147-.928q-.04-.372-.04-1.181v-9.047h5.731V159a6.4,6.4,0,0,0,.213,2.084q.24.849,1.911.861h10.56q1.673-.012,1.924-.861A6.376,6.376,0,0,0,420.7,159V152.05h5.732v9.9l-.052.876a8.113,8.113,0,0,1-.12.928,7.143,7.143,0,0,1-.24.756,5.242,5.242,0,0,1-.357.678,4.906,4.906,0,0,1-1.938,1.791,5.75,5.75,0,0,1-2.746.65Zm4.2-24.213a2.787,2.787,0,0,0-2.8,2.8,2.805,2.805,0,0,0,5.611,0,2.787,2.787,0,0,0-2.812-2.8Zm7.177,0a2.689,2.689,0,0,0-1.976.81,2.741,2.741,0,0,0-.823,1.99,2.8,2.8,0,1,0,5.6,0,2.763,2.763,0,0,0-2.8-2.8Z" transform="translate(-400.149 -143.412)"/><path class="a" d="M514.442,174.971V158.056h-.863v-4.711h6.144v21.626Z" transform="translate(-484.033 -150.758)"/><path class="a" d="M558.784,184.088v5.426H545.517v-5.426h1a41.4,41.4,0,0,1,.225-4.564,8.989,8.989,0,0,1,.73-2.429,7.609,7.609,0,0,1,2.76-3.037,7.342,7.342,0,0,1,9.684,1.711l-3.608,3.595a2.733,2.733,0,0,0-2.176-.795q-2.934,0-2.932,3.317v2.2Z" transform="translate(-507.652 -165.3)"/><path class="a" d="M614.814,157.949v8.4a6.383,6.383,0,0,0,.212,2.084q.238.849,1.911.861h.823v5.679h-3.225a5.755,5.755,0,0,1-2.746-.65,4.994,4.994,0,0,1-1.95-1.791,4.232,4.232,0,0,1-.345-.678,3.768,3.768,0,0,1-.226-.756,7.56,7.56,0,0,1-.145-.928q-.04-.372-.04-1.181V153.345h6.089v4.6Z" transform="translate(-554.66 -150.758)"/><path class="a" d="M638.219,171.318V165.64h2.56a8.147,8.147,0,0,1-.345-2.347,7.549,7.549,0,0,1,2.4-5.612,8.415,8.415,0,0,1,6.1-2.4,9.01,9.01,0,0,1,3.357.6,8.752,8.752,0,0,1,4.55,4.312,7.427,7.427,0,0,1,.6,3.1,8.024,8.024,0,0,1-.318,2.347h2.242v5.679Zm12.657-6.01a2.566,2.566,0,0,0,.729-2.016,2.614,2.614,0,0,0-.729-2.03,3.111,3.111,0,0,0-3.873,0,2.58,2.58,0,0,0-.756,2.03,2.51,2.51,0,0,0,.756,2.016,3.159,3.159,0,0,0,3.873,0Zm.185-16.079a2.8,2.8,0,0,0-4.788,1.976,2.807,2.807,0,0,0,2.8,2.813,2.8,2.8,0,0,0,1.989-4.789Z" transform="translate(-576.208 -147.105)"/><path class="a" d="M717.41,165.245v-5.81l3.845-5.068h6.4l-3.768,5.068h6.1a4.849,4.849,0,0,1,.5.013,7.488,7.488,0,0,1,3.582,1.074,7.951,7.951,0,0,1,2.879,3.2,8.414,8.414,0,0,1,.756,2.535v9.472H715.233v-5.679h16.744v-.238q0-4.258-2.575-4.538l-.5-.027Z" transform="translate(-633.161 -151.513)"/><g transform="translate(0.498 32.513)"><path class="a" d="M409.411,286l-.929,1.3v5.254h-6.42V270.384h6.42v6.2l4.431-6.2h7.7l-7.06,9.83,8.664,12.339h-7.8Z" transform="translate(-402.061 -269.11)"/><path class="a" d="M495.649,290.08a6.187,6.187,0,0,1,2.6,5.427V306H493l-.425-.968a7.137,7.137,0,0,1-4.79,1.419,8.719,8.719,0,0,1-4.311-.968,4.5,4.5,0,0,1-2.362-4.206q0-3.769,3.9-5.586a9.754,9.754,0,0,1,4.113-.968,8.678,8.678,0,0,1,3.172.61v-.465a1.3,1.3,0,0,0-.756-1.115,4.176,4.176,0,0,0-2.216-.517,11.305,11.305,0,0,0-6.383,2.454l-.716-4.67q2.56-2.455,7.789-2.455A9.631,9.631,0,0,1,495.649,290.08Zm-6.234,12.034a2.779,2.779,0,0,0,2.879-1.646v-1.606a5.473,5.473,0,0,0-1.248-.145,5.8,5.8,0,0,0-1.791.292q-1.566.517-1.566,1.672Q487.689,302.113,489.415,302.113Z" transform="translate(-460.519 -282.556)"/><path class="a" d="M562.732,271.98h3.662v5.054h-3.662v11.9h-6.075v-11.9h-2.92V271.98h2.92a8.627,8.627,0,0,1,.808-4.246q1.354-2.241,5.294-2.242a24.692,24.692,0,0,1,4.883.584v4.656a16.735,16.735,0,0,0-2.056-.158Q562.732,270.574,562.732,271.98Z" transform="translate(-514.229 -265.492)"/><path class="a" d="M622.679,290.08a6.185,6.185,0,0,1,2.6,5.427V306h-5.254l-.423-.968a7.137,7.137,0,0,1-4.791,1.419,8.729,8.729,0,0,1-4.311-.968,4.5,4.5,0,0,1-2.362-4.206q0-3.769,3.9-5.586a9.765,9.765,0,0,1,4.113-.968,8.679,8.679,0,0,1,3.17.61v-.465a1.3,1.3,0,0,0-.756-1.115,4.165,4.165,0,0,0-2.216-.517,11.3,11.3,0,0,0-6.381,2.454l-.716-4.67q2.56-2.455,7.787-2.455A9.644,9.644,0,0,1,622.679,290.08Zm-6.237,12.034a2.775,2.775,0,0,0,2.879-1.646v-1.606a5.453,5.453,0,0,0-1.246-.145,5.809,5.809,0,0,0-1.792.292q-1.564.517-1.564,1.672Q614.718,302.113,616.442,302.113Z" transform="translate(-554.459 -282.556)"/><path class="a" d="M697.5,290.08a6.187,6.187,0,0,1,2.6,5.427V306h-5.254l-.424-.968a7.138,7.138,0,0,1-4.791,1.419,8.725,8.725,0,0,1-4.311-.968,4.5,4.5,0,0,1-2.362-4.206q0-3.769,3.9-5.586a9.755,9.755,0,0,1,4.112-.968,8.679,8.679,0,0,1,3.172.61v-.465a1.3,1.3,0,0,0-.756-1.115,4.168,4.168,0,0,0-2.215-.517,11.3,11.3,0,0,0-6.382,2.454l-.716-4.67q2.561-2.455,7.788-2.455A9.633,9.633,0,0,1,697.5,290.08Zm-6.234,12.034a2.776,2.776,0,0,0,2.879-1.646v-1.606a5.454,5.454,0,0,0-1.246-.145,5.8,5.8,0,0,0-1.792.292q-1.566.517-1.566,1.672Q689.543,302.113,691.269,302.113Z" transform="translate(-609.795 -282.556)"/><path class="a" d="M765.191,285.737v5.334q0,2.109,1.751,2.109a9.158,9.158,0,0,0,1.526-.212V297.4a17.118,17.118,0,0,1-4.353.69q-3.249,0-4.351-2.309a11.185,11.185,0,0,1-.65-4.471v-5.572h-2.906v-5.054h2.906v-3.423h6.077v3.423h3.661v5.054Z" transform="translate(-663.962 -274.194)"/></g></g></g><g transform="translate(1160.576 36)"><path class="a" d="M97.364,217.852c-4.691-6.393-10.641-11.532-17.3-16.736l22.4-2.532c-8.2-2.6-16.6-2.744-25.586-2.644L88.7,182.035l-.323-.365c-6.323,3.184-11.58,7.907-17.21,12.852-.643-5.653-1.229-10.807-1.815-15.96l-.469-.008c-1.611,4.449-2.038,9.155-2.458,14.1-5.884-2.755-11.434-5.459-17.547-6.517l-.272.476,14.905,10.168c-9.167,1.9-18.091,3.713-26.368,7.731l.1.566,26.121-2.3c-6.707,8.276-12.665,16.4-16.335,25.931l.467.378,19.342-21.567C68.024,217.063,70,225.816,74,233.959l.726-.111-2.6-31.154L96.882,218.4Z" transform="translate(-37.139 -177.552)"/><path class="a" d="M57.856,336.086c2.4-1.418,3.377-4.314,2.137-6.367-1.164-1.926-4.255-2.437-6.526-1.078-2.393,1.432-3.361,4.365-2.107,6.384C52.593,337.01,55.487,337.483,57.856,336.086Z" transform="translate(-48.058 -296.558)"/><path class="a" d="M60.331,239.98a3.339,3.339,0,0,0-1.73-6.427,4.977,4.977,0,0,0-4.534,2.944,2.8,2.8,0,0,0,.871,3.289A4.875,4.875,0,0,0,60.331,239.98Z" transform="translate(-50.503 -221.383)"/><path class="a" d="M295.109,222.8a4.662,4.662,0,0,0,5.921,1.671,2.789,2.789,0,0,0,.9-4.051,4.747,4.747,0,0,0-5.972-1.508A2.665,2.665,0,0,0,295.109,222.8Z" transform="translate(-242.791 -209.306)"/><path class="a" d="M129.839,179.636a2.637,2.637,0,0,0-1.135,3.685c1.044,1.717,3.9,2.186,5.892.97a2.688,2.688,0,0,0,1.031-3.848C134.532,178.832,131.713,178.439,129.839,179.636Z" transform="translate(-109.977 -177.858)"/><path class="a" d="M221.514,174.153a2.435,2.435,0,0,0-1.017,3.4,4.5,4.5,0,0,0,5.71,1.347,2.427,2.427,0,0,0,1-3.534A4.319,4.319,0,0,0,221.514,174.153Z" transform="translate(-183.324 -173.571)"/></g></g></svg>