<svg xmlns="http://www.w3.org/2000/svg" xmlns:xlink="http://www.w3.org/1999/xlink" width="162.195" height="49.952" viewBox="0 0 162.195 49.952"><defs><style>.a{fill:url(#a);}.b{fill:url(#b);}.c{fill:url(#c);}.d{fill:url(#d);}.e{fill:url(#e);}.f{fill:url(#f);}.g{fill:#003f84;}</style><radialGradient id="a" cx="0.5" cy="0.5" r="0.549" gradientTransform="translate(0.079) scale(0.842 1)" gradientUnits="objectBoundingBox"><stop offset="0" stop-color="#57bee3"/><stop offset="0.084" stop-color="#4fb2da"/><stop offset="0.713" stop-color="#165f9c"/><stop offset="1" stop-color="#003f84"/></radialGradient><radialGradient id="b" cx="2.438" cy="-1.892" r="3.676" gradientTransform="translate(0.037) scale(0.927 1)" xlink:href="#a"/><radialGradient id="c" cx="2.671" cy="0.27" r="4.638" gradientTransform="translate(0.087) scale(0.826 1)" xlink:href="#a"/><radialGradient id="d" cx="-3.241" cy="0.76" r="5.053" gradientTransform="translate(0.081) scale(0.838 1)" xlink:href="#a"/><radialGradient id="e" cx="1.047" cy="2.142" r="5.491" gradientTransform="translate(0.11) scale(0.78 1)" xlink:href="#a"/><radialGradient id="f" cx="-1.393" cy="2.401" r="5.68" gradientTransform="translate(0.109) scale(0.783 1)" xlink:href="#a"/></defs><g transform="translate(-1094 -24)"><g transform="translate(1197.939 24)"><path class="a" d="M90.848,213.35c-4.183-5.66-9.49-10.211-15.428-14.819l19.975-2.242c-7.317-2.3-14.807-2.429-22.818-2.341l10.541-12.312-.288-.323c-5.639,2.82-10.328,7-15.348,11.38-.573-5.006-1.1-9.569-1.618-14.132l-.418-.007c-1.437,3.94-1.817,8.106-2.192,12.483-5.247-2.439-10.2-4.834-15.648-5.77l-.243.421,13.293,9c-8.175,1.685-16.134,3.288-23.515,6.845l.093.5,23.3-2.033c-5.981,7.327-11.294,14.523-14.568,22.96l.417.335,17.249-19.1c1.057,8.447,2.82,16.2,6.39,23.408l.648-.1-2.321-27.585,22.076,13.91Z" transform="translate(-37.139 -177.66)"/><path class="b" d="M57.093,335.2c2.145-1.265,3.012-3.847,1.906-5.678-1.038-1.718-3.794-2.173-5.82-.962-2.134,1.277-3,3.893-1.879,5.693C52.4,336.022,54.981,336.444,57.093,335.2Z" transform="translate(-48.356 -300.18)"/><path class="c" d="M59.632,239.285a2.977,2.977,0,0,0-1.542-5.732,4.438,4.438,0,0,0-4.044,2.625,2.494,2.494,0,0,0,.777,2.933A4.347,4.347,0,0,0,59.632,239.285Z" transform="translate(-50.867 -222.786)"/><path class="d" d="M295.055,222.326a4.158,4.158,0,0,0,5.281,1.49,2.488,2.488,0,0,0,.8-3.612,4.233,4.233,0,0,0-5.326-1.345A2.377,2.377,0,0,0,295.055,222.326Z" transform="translate(-248.397 -210.354)"/><path class="e" d="M129.676,179.561a2.352,2.352,0,0,0-1.013,3.286c.931,1.531,3.474,1.949,5.254.865a2.4,2.4,0,0,0,.919-3.432C133.861,178.843,131.347,178.493,129.676,179.561Z" transform="translate(-111.963 -177.975)"/><path class="f" d="M221.368,174.09a2.171,2.171,0,0,0-.907,3.032,4.016,4.016,0,0,0,5.092,1.2,2.165,2.165,0,0,0,.893-3.152A3.852,3.852,0,0,0,221.368,174.09Z" transform="translate(-187.31 -173.571)"/></g><g transform="translate(56.101 -106)"><g transform="translate(1037.899 131)"><g transform="translate(0)"><path class="g" d="M404.741,163.8a4.849,4.849,0,0,1-2.313-.547,4.206,4.206,0,0,1-1.643-1.508,3.692,3.692,0,0,1-.29-.571,3.179,3.179,0,0,1-.189-.637,5.89,5.89,0,0,1-.123-.782q-.034-.313-.034-.995v-7.619h4.826v5.4a5.39,5.39,0,0,0,.179,1.755q.2.715,1.609.725h8.893q1.409-.01,1.62-.725a5.371,5.371,0,0,0,.178-1.755v-5.854h4.827v8.334l-.044.738a6.837,6.837,0,0,1-.1.782,6.008,6.008,0,0,1-.2.637,4.409,4.409,0,0,1-.3.571A4.131,4.131,0,0,1,420,163.255a4.842,4.842,0,0,1-2.312.547Zm3.541-20.39a2.347,2.347,0,0,0-2.357,2.358,2.362,2.362,0,0,0,4.725,0,2.347,2.347,0,0,0-2.368-2.358Zm6.044,0a2.264,2.264,0,0,0-1.664.682,2.308,2.308,0,0,0-.693,1.676,2.357,2.357,0,1,0,4.715,0,2.327,2.327,0,0,0-2.358-2.358Z" transform="translate(-400.149 -143.412)"/><path class="g" d="M514.306,171.556V157.312h-.727v-3.967h5.173v18.211Z" transform="translate(-488.698 -151.166)"/><path class="g" d="M556.689,182.339v4.569H545.517v-4.569h.839a34.855,34.855,0,0,1,.189-3.844,7.568,7.568,0,0,1,.615-2.045,6.407,6.407,0,0,1,2.324-2.558,6.183,6.183,0,0,1,8.155,1.441l-3.039,3.027a2.3,2.3,0,0,0-1.832-.669q-2.471,0-2.469,2.793v1.855Z" transform="translate(-513.631 -166.518)"/><path class="g" d="M613.909,157.222v7.072a5.374,5.374,0,0,0,.178,1.755q.2.715,1.609.725h.693v4.782h-2.716a4.846,4.846,0,0,1-2.312-.547,4.2,4.2,0,0,1-1.642-1.508,3.563,3.563,0,0,1-.29-.571,3.169,3.169,0,0,1-.191-.637,6.362,6.362,0,0,1-.122-.782q-.034-.313-.034-.995V153.345h5.128v3.877Z" transform="translate(-563.253 -151.166)"/><path class="g" d="M638.219,167.7v-4.782h2.156a6.859,6.859,0,0,1-.29-1.977,6.357,6.357,0,0,1,2.022-4.726,7.086,7.086,0,0,1,5.14-2.023,7.588,7.588,0,0,1,2.827.5,7.369,7.369,0,0,1,3.831,3.631,6.254,6.254,0,0,1,.5,2.615,6.757,6.757,0,0,1-.268,1.977h1.888V167.7Zm10.659-5.061a2.161,2.161,0,0,0,.614-1.7,2.2,2.2,0,0,0-.614-1.71,2.619,2.619,0,0,0-3.262,0,2.173,2.173,0,0,0-.637,1.71,2.113,2.113,0,0,0,.637,1.7,2.661,2.661,0,0,0,3.262,0Zm.156-13.54A2.362,2.362,0,0,0,645,150.763a2.364,2.364,0,0,0,2.357,2.369,2.362,2.362,0,0,0,1.675-4.033Z" transform="translate(-585.999 -147.311)"/><path class="g" d="M717.066,163.528v-4.893l3.238-4.268h5.387l-3.173,4.268h5.14a4.083,4.083,0,0,1,.424.011,6.305,6.305,0,0,1,3.016.9,6.7,6.7,0,0,1,2.424,2.692,7.084,7.084,0,0,1,.637,2.135v7.977H715.233v-4.782h14.1v-.2q0-3.586-2.169-3.821l-.424-.023Z" transform="translate(-646.12 -151.964)"/><g transform="translate(0.419 27.379)"><path class="g" d="M408.25,283.534l-.783,1.094v4.424h-5.406V270.384h5.406V275.6l3.732-5.217h6.481l-5.945,8.278,7.3,10.391h-6.569Z" transform="translate(-402.061 -269.311)"/><path class="g" d="M493.353,289.841a5.21,5.21,0,0,1,2.191,4.57v8.837H491.12l-.358-.815a6.01,6.01,0,0,1-4.033,1.2,7.343,7.343,0,0,1-3.631-.815,3.785,3.785,0,0,1-1.989-3.542,4.974,4.974,0,0,1,3.284-4.7,8.213,8.213,0,0,1,3.463-.815,7.308,7.308,0,0,1,2.671.514v-.391a1.1,1.1,0,0,0-.637-.939,3.516,3.516,0,0,0-1.866-.435,9.52,9.52,0,0,0-5.375,2.066l-.6-3.932q2.156-2.067,6.559-2.068A8.111,8.111,0,0,1,493.353,289.841ZM488.1,299.975a2.34,2.34,0,0,0,2.424-1.386v-1.352a4.611,4.611,0,0,0-1.051-.122,4.883,4.883,0,0,0-1.508.245q-1.319.436-1.319,1.408Q486.65,299.974,488.1,299.975Z" transform="translate(-463.77 -283.505)"/><path class="g" d="M561.312,270.956H564.4v4.256h-3.083v10.022H556.2V275.212h-2.459v-4.256H556.2a7.263,7.263,0,0,1,.68-3.576q1.14-1.887,4.458-1.888a20.794,20.794,0,0,1,4.112.492v3.921a14.089,14.089,0,0,0-1.731-.133Q561.312,269.772,561.312,270.956Z" transform="translate(-520.467 -265.492)"/><path class="g" d="M620.382,289.841a5.209,5.209,0,0,1,2.189,4.57v8.837h-4.424l-.357-.815a6.01,6.01,0,0,1-4.034,1.2,7.351,7.351,0,0,1-3.631-.815,3.787,3.787,0,0,1-1.989-3.542,4.976,4.976,0,0,1,3.285-4.7,8.223,8.223,0,0,1,3.464-.815,7.309,7.309,0,0,1,2.67.514v-.391a1.1,1.1,0,0,0-.637-.939,3.507,3.507,0,0,0-1.866-.435,9.519,9.519,0,0,0-5.373,2.066l-.6-3.932q2.156-2.067,6.557-2.068A8.121,8.121,0,0,1,620.382,289.841Zm-5.252,10.134a2.337,2.337,0,0,0,2.424-1.386v-1.352a4.594,4.594,0,0,0-1.049-.122,4.892,4.892,0,0,0-1.509.245q-1.317.436-1.317,1.408Q613.678,299.974,615.13,299.975Z" transform="translate(-562.934 -283.505)"/><path class="g" d="M695.207,289.841a5.21,5.21,0,0,1,2.191,4.57v8.837h-4.424l-.357-.815a6.012,6.012,0,0,1-4.034,1.2,7.348,7.348,0,0,1-3.631-.815,3.787,3.787,0,0,1-1.989-3.542,4.974,4.974,0,0,1,3.285-4.7,8.215,8.215,0,0,1,3.463-.815,7.309,7.309,0,0,1,2.671.514v-.391a1.1,1.1,0,0,0-.637-.939,3.51,3.51,0,0,0-1.865-.435,9.519,9.519,0,0,0-5.375,2.066l-.6-3.932q2.156-2.067,6.558-2.068A8.112,8.112,0,0,1,695.207,289.841Zm-5.25,10.134a2.338,2.338,0,0,0,2.424-1.386v-1.352a4.594,4.594,0,0,0-1.049-.122,4.884,4.884,0,0,0-1.509.245q-1.319.436-1.319,1.408Q688.5,299.974,689.957,299.975Z" transform="translate(-621.348 -283.505)"/><path class="g" d="M763.773,284.4v4.492q0,1.776,1.474,1.776a7.712,7.712,0,0,0,1.285-.178v3.732a14.415,14.415,0,0,1-3.665.581q-2.736,0-3.664-1.944a9.419,9.419,0,0,1-.547-3.765V284.4h-2.447v-4.256h2.447v-2.883h5.117v2.883h3.083V284.4Z" transform="translate(-678.527 -274.678)"/></g></g></g></g></g></svg>