<svg xmlns="http://www.w3.org/2000/svg" width="64.124" height="76" viewBox="0 0 64.124 76"><defs><style>.a{fill:#3f9bc8;}</style></defs><g transform="translate(-40.003 0.001)"><g transform="translate(40.003 -0.001)"><g transform="translate(0)"><path class="a" d="M104,64.682,93.674,41.826c.042-.054.086-.107.127-.163A10.688,10.688,0,0,0,95.382,36.4a15.108,15.108,0,0,1,.5-2.793,14.242,14.242,0,0,1,1.192-2.436,10.912,10.912,0,0,0,1.856-5.3,10.913,10.913,0,0,0-1.856-5.3,14.214,14.214,0,0,1-1.192-2.436,15.1,15.1,0,0,1-.5-2.793A10.69,10.69,0,0,0,93.8,10.074a10.879,10.879,0,0,0-4.542-3.141,14.79,14.79,0,0,1-2.477-1.322,14.576,14.576,0,0,1-1.988-1.923A10.865,10.865,0,0,0,80.369.31a10.623,10.623,0,0,0-5.431.128,15.318,15.318,0,0,1-2.873.393A15.344,15.344,0,0,1,69.192.439,10.622,10.622,0,0,0,63.761.31a10.864,10.864,0,0,0-4.425,3.378,14.542,14.542,0,0,1-1.988,1.923,14.782,14.782,0,0,1-2.477,1.322,10.876,10.876,0,0,0-4.542,3.141,10.689,10.689,0,0,0-1.581,5.262,15.087,15.087,0,0,1-.5,2.793,14.231,14.231,0,0,1-1.192,2.436,10.912,10.912,0,0,0-1.856,5.3,10.911,10.911,0,0,0,1.856,5.3,14.21,14.21,0,0,1,1.192,2.436,15.1,15.1,0,0,1,.5,2.793,13.548,13.548,0,0,0,.968,4.216L40.1,66.071a1.484,1.484,0,0,0,1.389,2.009h0l11.423-.029,8.55,7.575a1.484,1.484,0,0,0,2.373-.586l7.74-20.487,9.291,20.573a1.484,1.484,0,0,0,2.405.436l8.057-8.1,11.4-.689A1.484,1.484,0,0,0,104,64.682Zm-51.547.4-8.812.023,8.276-21.9.08.054c.074.052.149.1.225.154l.122.079q.11.071.222.139l.118.071c.085.05.171.1.257.148l.085.048q.171.095.343.184l.088.045.262.133.128.063.226.109.133.063.224.105.129.06.172.079.145.067c.575.264,1.131.52,1.634.8a7.866,7.866,0,0,1,.843.526c.079.057.156.118.234.18l.073.061c.053.044.107.089.16.135l.084.074.151.138.082.077q.08.076.16.155l.07.069q.1.1.206.209l.022.023q.118.123.237.25l.051.054.138.149Zm9.373,6.893-6.6-5.843,1.481-3.918,4.608-12.2a7.483,7.483,0,0,0,2.3,1.357l-2.067,5.472A1.484,1.484,0,1,0,64.327,57.9l2.341-6.2.076-.007q.164-.015.329-.034l.056-.006c.273-.033.546-.074.817-.12l.018,0c.413-.07.824-.151,1.231-.232l.476-.094ZM71.936,47.938H71.9l-.089,0c-.1,0-.2.006-.3.012l-.111.007c-.107.007-.214.015-.321.025l-.08.008c-.117.012-.234.024-.35.039l-.029,0c-.682.087-1.352.219-2.009.349a8.442,8.442,0,0,1-3.937.217c-.068-.022-.136-.047-.2-.074L64.4,48.5c-.041-.018-.081-.035-.122-.054l-.094-.048-.1-.053-.1-.059-.089-.053-.107-.068-.082-.054-.11-.077-.077-.056-.111-.084-.074-.059-.111-.09-.073-.062-.111-.1-.073-.066-.109-.1-.084-.08-.167-.161-.106-.1-.08-.081-.1-.107-.08-.084-.1-.108-.083-.088-.1-.107-.087-.094-.091-.1-.242-.263a16.917,16.917,0,0,0-2.429-2.317,17.156,17.156,0,0,0-2.984-1.619c-.259-.119-.515-.237-.765-.356a6.728,6.728,0,0,1-2.616-1.834h0c-.043-.059-.083-.119-.122-.182a9.336,9.336,0,0,1-.91-3.682,17.485,17.485,0,0,0-.626-3.359,16.573,16.573,0,0,0-1.432-2.981,8.494,8.494,0,0,1-1.472-3.841,8.494,8.494,0,0,1,1.472-3.841,16.572,16.572,0,0,0,1.432-2.981,17.485,17.485,0,0,0,.626-3.359,8.483,8.483,0,0,1,1.033-3.866,8.5,8.5,0,0,1,3.381-2.19,17.157,17.157,0,0,0,2.984-1.619A16.917,16.917,0,0,0,61.523,5.7a8.472,8.472,0,0,1,3.155-2.562,3.8,3.8,0,0,1,1.176-.164,14.968,14.968,0,0,1,2.761.381,17.739,17.739,0,0,0,3.45.449,17.737,17.737,0,0,0,3.45-.449,8.443,8.443,0,0,1,3.937-.217A8.472,8.472,0,0,1,82.607,5.7a16.91,16.91,0,0,0,2.429,2.316A17.151,17.151,0,0,0,88.02,9.631a8.5,8.5,0,0,1,3.381,2.19,8.483,8.483,0,0,1,1.033,3.866,17.485,17.485,0,0,0,.626,3.359,16.561,16.561,0,0,0,1.432,2.981,8.494,8.494,0,0,1,1.472,3.841,8.495,8.495,0,0,1-1.472,3.841A16.571,16.571,0,0,0,93.06,32.69a17.485,17.485,0,0,0-.626,3.359A8.481,8.481,0,0,1,91.4,39.915a3.519,3.519,0,0,1-.516.559q-.1.093-.217.181l-.059.046c-.085.065-.174.128-.265.19l-.079.052c-.085.056-.172.111-.261.165l-.049.03c-.1.057-.2.113-.3.168l-.091.05c-.1.055-.208.11-.314.164l-.076.038-.3.145-.069.033-.354.166-.09.042-.35.162a17.157,17.157,0,0,0-2.984,1.619c-.138.1-.271.205-.4.313a19.918,19.918,0,0,0-2.027,2c-.352.383-.684.745-1.026,1.084l0,0a7.632,7.632,0,0,1-1.347,1.106l-.071.042c-.053.031-.106.061-.159.088l-.085.044c-.052.026-.1.049-.155.072l-.077.034c-.077.032-.154.061-.231.086a3.051,3.051,0,0,1-.338.086,4.131,4.131,0,0,1-.756.077,12.928,12.928,0,0,1-2.568-.326l-.275-.054a17.739,17.739,0,0,0-3.45-.449Zm10.752,24-9.46-20.948.1.014.237.036.163.027.241.042.163.029.258.049.153.029.2.04.191.038a17.1,17.1,0,0,0,3.385.439,6.675,6.675,0,0,0,2.046-.311c.106-.035.21-.073.312-.112l.071-.028A6.583,6.583,0,0,0,81.368,51l.017-.009a7.489,7.489,0,0,0,.691-.415l2.377,5.264L88.9,65.7Zm8.921-7.469L84.389,48.487c.137-.148.272-.295.405-.439.5-.543.976-1.063,1.462-1.5l.107-.092,3.15,6.975a1.484,1.484,0,0,0,2.706-1.222l-3.28-7.263.011,0,.31-.143.423-.2.125-.058q.2-.093.4-.19l.18-.088.24-.121q.177-.09.351-.184l.162-.089c.054-.03.109-.058.163-.089l9.1,20.153Z" transform="translate(-40.003 0.001)"/></g></g><g transform="translate(51.378 5.181)"><g transform="translate(0)"><path class="a" d="M137.319,34.9a20.688,20.688,0,1,0,20.688,20.688A20.711,20.711,0,0,0,137.319,34.9Zm0,38.407a17.719,17.719,0,1,1,17.719-17.719A17.739,17.739,0,0,1,137.319,73.312Z" transform="translate(-116.631 -34.905)"/></g></g><g transform="translate(70.581 10.815)"><g transform="translate(0)"><path class="a" d="M248.939,74.058a1.393,1.393,0,0,0-.085-.278,1.576,1.576,0,0,0-.137-.257,1.472,1.472,0,0,0-.184-.226,1.42,1.42,0,0,0-.226-.184,1.466,1.466,0,0,0-.257-.137,1.5,1.5,0,0,0-.277-.085,1.462,1.462,0,0,0-.579,0,1.5,1.5,0,0,0-.278.085,1.464,1.464,0,0,0-.257.137,1.421,1.421,0,0,0-.226.184,1.491,1.491,0,0,0-.184.226,1.579,1.579,0,0,0-.137.257,1.4,1.4,0,0,0-.085.278,1.463,1.463,0,0,0-.03.289,1.478,1.478,0,0,0,.03.291,1.392,1.392,0,0,0,.085.278,1.491,1.491,0,0,0,.321.482,1.42,1.42,0,0,0,.226.184,1.464,1.464,0,0,0,.257.137,1.5,1.5,0,0,0,.278.085,1.5,1.5,0,0,0,.579,0,1.493,1.493,0,0,0,.277-.085,1.464,1.464,0,0,0,.257-.137,1.42,1.42,0,0,0,.226-.184,1.546,1.546,0,0,0,.184-.226,1.579,1.579,0,0,0,.137-.257,1.393,1.393,0,0,0,.085-.278,1.433,1.433,0,0,0,0-.58Z" transform="translate(-246 -72.864)"/></g></g><g transform="translate(57.012 11.951)"><path class="a" d="M183.211,92.949a1.484,1.484,0,0,0-1.484,1.484A12.084,12.084,0,1,1,164.8,83.36a1.484,1.484,0,1,0-1.193-2.718A15.053,15.053,0,1,0,184.7,94.433,1.484,1.484,0,0,0,183.211,92.949Z" transform="translate(-154.589 -80.516)"/></g><g transform="translate(63.206 17.37)"><g transform="translate(0)"><path class="a" d="M213.962,123.405a1.484,1.484,0,0,0-.992-.965l-4.134-1.219-2.436-3.555a1.484,1.484,0,0,0-2.449,0l-2.436,3.555-4.134,1.219a1.484,1.484,0,0,0-.756,2.329l2.628,3.416-.118,4.308a1.484,1.484,0,0,0,1.981,1.439l4.061-1.444,4.061,1.444a1.484,1.484,0,0,0,1.981-1.439l-.119-4.308,2.628-3.416A1.484,1.484,0,0,0,213.962,123.405Zm-5.538,3.388a1.484,1.484,0,0,0-.307.946l.073,2.671-2.517-.9a1.486,1.486,0,0,0-.995,0l-2.517.9.073-2.671a1.484,1.484,0,0,0-.307-.946l-1.629-2.117,2.563-.756a1.484,1.484,0,0,0,.8-.585l1.511-2.2,1.51,2.2a1.484,1.484,0,0,0,.8.585l2.563.756Z" transform="translate(-196.316 -117.021)"/></g></g><g transform="translate(91.601 56.256)"><path class="a" d="M390.548,380.182a1.5,1.5,0,0,0-.085-.278,1.579,1.579,0,0,0-.137-.257,1.687,1.687,0,0,0-.186-.226,1.506,1.506,0,0,0-.481-.321,1.542,1.542,0,0,0-.279-.085,1.462,1.462,0,0,0-.579,0,1.491,1.491,0,0,0-.278.085,1.464,1.464,0,0,0-.257.137,1.516,1.516,0,0,0-.226.184,1.491,1.491,0,0,0-.321.482,1.5,1.5,0,0,0-.085.278,1.433,1.433,0,0,0,0,.58,1.5,1.5,0,0,0,.085.278,1.577,1.577,0,0,0,.137.257,1.486,1.486,0,0,0,.184.226,1.419,1.419,0,0,0,.226.184,1.466,1.466,0,0,0,.257.137,1.5,1.5,0,0,0,.278.085,1.427,1.427,0,0,0,.579,0,1.548,1.548,0,0,0,.279-.085,1.507,1.507,0,0,0,.255-.137,1.42,1.42,0,0,0,.226-.184,1.592,1.592,0,0,0,.186-.226,1.574,1.574,0,0,0,.137-.257,1.5,1.5,0,0,0,.085-.278,1.507,1.507,0,0,0,0-.58Z" transform="translate(-387.607 -378.988)"/></g><g transform="translate(59.548 60.933)"><path class="a" d="M174.61,411.691a1.5,1.5,0,0,0-.085-.278,1.464,1.464,0,0,0-.137-.257,1.442,1.442,0,0,0-.41-.41,1.465,1.465,0,0,0-.257-.137,1.392,1.392,0,0,0-.278-.085,1.479,1.479,0,0,0-.858.085,1.505,1.505,0,0,0-.255.137,1.428,1.428,0,0,0-.226.184,1.519,1.519,0,0,0-.186.226,1.463,1.463,0,0,0-.137.257,1.5,1.5,0,0,0-.085.278,1.5,1.5,0,0,0,0,.579,1.5,1.5,0,0,0,.085.278,1.465,1.465,0,0,0,.137.257,1.517,1.517,0,0,0,.186.226,1.428,1.428,0,0,0,.226.184,1.505,1.505,0,0,0,.255.137,1.457,1.457,0,0,0,.278.085,1.489,1.489,0,0,0,.291.03,1.463,1.463,0,0,0,.289-.03,1.394,1.394,0,0,0,.278-.085,1.465,1.465,0,0,0,.257-.137,1.442,1.442,0,0,0,.41-.41,1.465,1.465,0,0,0,.137-.257,1.5,1.5,0,0,0,.085-.278,1.426,1.426,0,0,0,0-.579Z" transform="translate(-171.671 -410.497)"/></g></g></svg>