<svg xmlns="http://www.w3.org/2000/svg" width="25" height="19.186" viewBox="0 0 25 19.186"><defs><style>.a{fill:#53c546;}.b{fill:#f5f5f5;}</style></defs><g transform="translate(-32 -46)"><path class="a" d="M2.907,0H22.093A2.907,2.907,0,0,1,25,2.907V16.279a2.907,2.907,0,0,1-2.907,2.907H2.907A2.907,2.907,0,0,1,0,16.279V2.907A2.907,2.907,0,0,1,2.907,0Z" transform="translate(32 46)"/><g transform="translate(36 50)"><path class="b" d="M72.589,150.5c.048.307.233.4.395.391a.4.4,0,0,0,.357-.372v-1.053a.1.1,0,1,1,.191,0v1.058a.383.383,0,0,0,.525.355l.1-.038c.009.884-.045,1.661-.046,1.675a.191.191,0,0,0,.177.2H74.3a.192.192,0,0,0,.191-.178c0-.062.063-.913.046-1.855l.058-.023a.192.192,0,0,1,.157.007.547.547,0,0,0,.631-.1l.035-.034a.572.572,0,0,0,.139-.588l-.163-.489a.192.192,0,0,0,.142-.354l-.383-.191a.191.191,0,0,0-.267.232l.308.924a.191.191,0,0,1-.046.2l-.034.034a.164.164,0,0,1-.19.031.572.572,0,0,0-.4-.04,6.6,6.6,0,0,0-.234-1.65.192.192,0,0,0-.363.121,6.579,6.579,0,0,1,.219,1.671l-.229.092v-1.058a.479.479,0,1,0-.957,0v.927l-.2-.965a.191.191,0,1,0-.375.076Z" transform="translate(-72.33 -148.115)"/><path class="b" d="M80.889,144.932a.191.191,0,0,0,.191-.191v-.191a.191.191,0,1,0-.383,0v.191A.191.191,0,0,0,80.889,144.932Z" transform="translate(-80.261 -144.154)"/><path class="b" d="M122.431,144.74h.191a.191.191,0,1,0,0-.383h-.191a.191.191,0,0,0,0,.383Z" transform="translate(-119.889 -144.154)"/><path class="b" d="M77.594,206.7l-.957.574a.191.191,0,0,0,.2.328l.957-.574a.191.191,0,0,0-.2-.328Z" transform="translate(-76.298 -203.594)"/><path class="b" d="M91.97,151.556l0,0a.437.437,0,0,0,.088.18.376.376,0,0,0,.326.127.528.528,0,0,0,.4-.209.348.348,0,0,0,.04.024.363.363,0,0,0,.337-.011.727.727,0,0,0,.343-.674.2.2,0,0,0-.2-.181.192.192,0,0,0-.183.2s0,.23-.135.314a.467.467,0,0,1-.06-.161.192.192,0,0,0-.38.032c0,.028-.006.274-.2.294a.468.468,0,0,1,0-.251.191.191,0,0,0-.294-.2l-.107.073c-.051-1.11-.168-2.4-.169-2.421a.192.192,0,0,0-.381.035c0,.018.137,1.515.179,2.658l-.029.028a.494.494,0,0,0-.419-.329.7.7,0,0,0-.674.427.453.453,0,0,0,.146.571.638.638,0,0,0,.571.026,1.6,1.6,0,0,1-.311.59.8.8,0,0,1-.612.312.5.5,0,0,1-.372-.159,1.093,1.093,0,0,1-.2-.685.191.191,0,0,0-.181-.2.188.188,0,0,0-.2.181,1.469,1.469,0,0,0,.3.962.878.878,0,0,0,.641.284h.039a1.167,1.167,0,0,0,.879-.446,1.981,1.981,0,0,0,.438-.981,2.17,2.17,0,0,1-.919,1.719.956.956,0,0,1-.959.07.821.821,0,0,1-.421-.81.191.191,0,1,0-.38-.047,1.2,1.2,0,0,0,.632,1.2,1.3,1.3,0,0,0,.58.138,1.417,1.417,0,0,0,.751-.226,2.546,2.546,0,0,0,1.1-2.046C91.976,151.833,91.974,151.7,91.97,151.556Zm-1.155.2c-.034-.023-.007-.1,0-.109a.325.325,0,0,1,.267-.188H91.1c.024,0,.089.008.117.153,0,.015.006.031.007.047C91.008,151.782,90.865,151.786,90.815,151.753Z" transform="translate(-88.093 -148.114)"/><path class="b" d="M71.949,240.706a.192.192,0,0,0-.262.068.4.4,0,0,1-.032.045l-.006-.016a1.288,1.288,0,0,1,.006-.65.191.191,0,0,0-.37-.1,1.649,1.649,0,0,0,.006.883c.088.234.223.293.321.3h.026a.5.5,0,0,0,.381-.274A.191.191,0,0,0,71.949,240.706Z" transform="translate(-71.224 -235.305)"/><path class="b" d="M159.646,146.079a.19.19,0,0,0,.118-.041l.965-.758a.183.183,0,0,0,.032-.037.479.479,0,1,0-.55-.043l-.683.536a.191.191,0,0,0,.118.342Zm.87-1.34a.1.1,0,1,1-.1.1A.1.1,0,0,1,160.516,144.739Z" transform="translate(-155.388 -144.153)"/><path class="b" d="M171.7,177.6a.191.191,0,0,0-.242.121.585.585,0,0,0,.075.565.386.386,0,0,0,.286.109.842.842,0,0,0,.264-.049.191.191,0,1,0-.121-.363.667.667,0,0,1-.156.033.366.366,0,0,1,.016-.175A.191.191,0,0,0,171.7,177.6Z" transform="translate(-166.799 -175.855)"/><path class="b" d="M222.251,144.942a.192.192,0,0,0,.237-.13l.112-.383a.191.191,0,1,0-.368-.107l-.112.383A.192.192,0,0,0,222.251,144.942Z" transform="translate(-215.158 -143.988)"/><path class="b" d="M196.28,140.874a.191.191,0,0,0,.193-.331c-.039-.022-.033-.086-.032-.1a.15.15,0,0,1,.088-.128.192.192,0,0,0-.114-.366.526.526,0,0,0-.355.45A.472.472,0,0,0,196.28,140.874Z" transform="translate(-190.304 -139.943)"/><path class="b" d="M163.974,227.442a.191.191,0,0,0-.036.38.359.359,0,0,1,.036.195.191.191,0,0,0,.383,0C164.357,227.449,163.99,227.442,163.974,227.442Z" transform="translate(-159.517 -223.409)"/><path class="b" d="M230.626,198.908a.446.446,0,0,0,.072.006.654.654,0,0,0,.453-.226.191.191,0,0,0-.271-.271c-.115.115-.176.117-.192.113-.037-.005-.07-.053-.077-.066a.191.191,0,0,0-.341.174A.518.518,0,0,0,230.626,198.908Z" transform="translate(-222.92 -195.668)"/><path class="b" d="M301.247,178.187l0-.008a.191.191,0,0,0-.363.123.429.429,0,0,0,.312.3l.042,0a.469.469,0,0,0,.37-.256.191.191,0,1,0-.319-.212A.592.592,0,0,1,301.247,178.187Z" transform="translate(-290.286 -176.292)"/><path class="b" d="M193.877,153.483c0-.817-.036-1.583-.086-2.254a9.7,9.7,0,0,1,.672,1.364.192.192,0,0,0,.359-.135,12.681,12.681,0,0,0-1.107-2.1c-.1-1.031-.222-1.686-.224-1.7a.191.191,0,0,0-.377.068c0,.008.062.346.134.913-.147-.218-.284-.415-.4-.577l.009,0a.191.191,0,1,0,.121-.363l-.574-.191a.189.189,0,0,0-.244.128.418.418,0,0,0-.4-.1.326.326,0,0,0-.183.341,1.731,1.731,0,0,0,.132.542c.113.319.183.554.064.666a.209.209,0,0,1-.2.069c-.118-.03-.235-.187-.313-.421a.184.184,0,0,0-.015-.027,3.257,3.257,0,0,0-.058-1.059.191.191,0,0,0-.376.075,1.823,1.823,0,0,1-.1,1.364.344.344,0,0,1-.286.13.11.11,0,0,1-.092-.043,1.845,1.845,0,0,1-.1-1.079.192.192,0,0,0-.19-.218c-.329,0-.454.375-.565.705-.048.145-.138.415-.2.444-.116,0-.191-.34-.191-.575a.192.192,0,0,0-.191-.191h0a.191.191,0,0,0-.191.191c0,.442.15.957.574.957.316,0,.444-.344.551-.664a1.2,1.2,0,0,0,.217.68.491.491,0,0,0,.381.175.728.728,0,0,0,.582-.27.891.891,0,0,0,.071-.106.715.715,0,0,0,.4.3.553.553,0,0,0,.135.017.608.608,0,0,0,.417-.178.563.563,0,0,0,.064-.077.517.517,0,0,0,.141.021.775.775,0,0,0,.4-.122.191.191,0,0,0-.206-.323.407.407,0,0,1-.217.057,1.977,1.977,0,0,0-.145-.629,2.651,2.651,0,0,1-.1-.32c.016.013.031.027.045.041a.191.191,0,0,0,.271,0,.183.183,0,0,0,.028-.042c.2.273.607.848,1.027,1.51.08.814.151,1.853.151,2.992a.192.192,0,0,0,.383,0Z" transform="translate(-183.292 -148.109)"/><path class="b" d="M301.063,149.279a.191.191,0,0,0,.383,0,1.954,1.954,0,0,0-.212-.66.191.191,0,1,0-.343.171A1.7,1.7,0,0,1,301.063,149.279Z" transform="translate(-290.286 -148.119)"/><path class="b" d="M264.527,248.617a.191.191,0,0,0-.257.084.547.547,0,0,1-.079.114,1.068,1.068,0,0,1,.05-.354.192.192,0,0,0-.318-.192l-.383.383a.191.191,0,0,0,.271.271l.01-.01a.4.4,0,0,0,.1.2.35.35,0,0,0,.249.11.337.337,0,0,0,.053,0,.624.624,0,0,0,.388-.347A.191.191,0,0,0,264.527,248.617Z" transform="translate(-254.622 -243.223)"/><path class="b" d="M153.5,195.559h-1.35q.018-.072.037-.136c.538-.112.858-.286.952-.517a.428.428,0,0,0-.072-.43.475.475,0,0,0-.484-.206c-.272.055-.515.348-.688.818a2.2,2.2,0,0,0-1.106.478,2.968,2.968,0,0,0-.4-1.273.191.191,0,0,0-.319.212,2.765,2.765,0,0,1,.351,1.426,1.515,1.515,0,0,1-1.149,1.532c-.215,0-.309-.256-.35-.472a2.2,2.2,0,0,0,.919-1.014,1.523,1.523,0,0,0-.127-1.038l-.014-.033.012.011a.191.191,0,0,0,.271-.271c-.112-.112-.329-.288-.527-.205a.326.326,0,0,0-.183.341.815.815,0,0,0,.089.308,1.158,1.158,0,0,1,.108.795,1.62,1.62,0,0,1-.627.691.188.188,0,0,0-.145-.07h0a.191.191,0,0,0-.191.191c0,.034,0,.071,0,.109a10.076,10.076,0,0,1-1.232.674.191.191,0,0,0,.079.366.189.189,0,0,0,.079-.017,11.027,11.027,0,0,0,1.144-.612.745.745,0,0,0,.692.63,1.627,1.627,0,0,0,1.281-.936,1.115,1.115,0,0,0,.128.183,2.158,2.158,0,0,0,1.463.562.191.191,0,0,0,.014-.382.41.41,0,0,1-.239-.116.328.328,0,0,1-.063-.251c.02-.236.781-.412,1.452-.423a.192.192,0,0,0,.178-.127l.191-.539a.192.192,0,0,0-.18-.256Zm-.841-.914.015,0c.018,0,.047.009.086.061.007.01.031.043.025.058-.022.054-.154.144-.43.225C152.474,194.75,152.592,194.658,152.657,194.645Zm-1.156,2.517a1.172,1.172,0,0,1-.53-.322.814.814,0,0,1-.17-.674.567.567,0,0,1,.04-.081c.27-.025.99.082,1.04.288a.643.643,0,0,0-.4.5A.81.81,0,0,0,151.5,197.162Z" transform="translate(-143.666 -191.705)"/><path class="b" d="M298.239,149.214l-.191-.574a.192.192,0,0,0-.372.08c.132,1.321.382,3.9.382,4.194,0,.265-.472.788-1.235,1.169a.191.191,0,0,0,.171.343c.7-.348,1.446-.97,1.446-1.512,0-.283-.2-2.319-.308-3.462A.192.192,0,0,0,298.239,149.214Z" transform="translate(-286.323 -148.114)"/><path class="b" d="M351.356,181.857a.192.192,0,0,0,.321-.183.966.966,0,0,1-.028-.372.194.194,0,0,0,.2-.164.192.192,0,0,0-.162-.217.346.346,0,0,0-.315.106.438.438,0,0,0-.1.205l-.222-.222a.191.191,0,0,0-.271.271Z" transform="translate(-337.843 -179.028)"/><path class="b" d="M357.233,204.884l-.718.515a.191.191,0,1,0,.223.311l.718-.515a.191.191,0,1,0-.223-.311Z" transform="translate(-343.289 -201.856)"/><path class="b" d="M371.535,219.724a.192.192,0,0,0,.017.254.532.532,0,0,1,.039.276.191.191,0,0,0,.185.2h.007a.192.192,0,0,0,.191-.185c.014-.391-.114-.534-.17-.577A.191.191,0,0,0,371.535,219.724Z" transform="translate(-357.654 -215.976)"/><path class="b" d="M337.541,153.273a.191.191,0,0,0,.191-.191c0-.283-.015-.6-.038-.926a7,7,0,0,1,.449.834.191.191,0,0,0,.176.116.189.189,0,0,0,.075-.016.191.191,0,0,0,.1-.251,10.541,10.541,0,0,0-.876-1.511c-.075-.7-.173-1.391-.249-1.885a.185.185,0,0,0,.12-.03.108.108,0,1,1,.106-.118.7.7,0,0,1,.07.469.192.192,0,0,0,.149.226.2.2,0,0,0,.039,0,.192.192,0,0,0,.187-.153,1.085,1.085,0,0,0-.122-.752.192.192,0,0,0-.264-.059.189.189,0,0,0-.086.173.187.187,0,0,0-.022-.055l-.323-.5a.191.191,0,0,0-.35.137c0,.015.149.855.279,1.868-.147-.207-.294-.41-.436-.6-.023-.29-.046-.558-.066-.779a.2.2,0,0,0,.031-.012.191.191,0,0,0,.086-.257l-.191-.383a.192.192,0,0,0-.362.1c.023.229.047.481.07.747-.121-.16-.233-.306-.329-.43a.192.192,0,0,0-.039-.317l-.383-.191a.191.191,0,0,0-.235.291c.01.013.482.6,1.046,1.367a15.394,15.394,0,0,1,.071,2.857c-.017.05-.046.11-.074.112-.116.016-.392-.243-.531-.52a.266.266,0,0,0-.256-.174c-.206.013-.286.239-.432.65a2.7,2.7,0,0,1-.381.81,2.175,2.175,0,0,1-.238-.754.19.19,0,0,0,.37-.065c0-.286-.2-2.46-.311-3.652a.191.191,0,0,0,.11-.238l-.191-.574a.192.192,0,0,0-.372.079c.13,1.366.374,4,.382,4.369l0-.01a.191.191,0,1,0-.379.054c.056.391.2,1.064.528,1.174a.32.32,0,0,0,.1.017.376.376,0,0,0,.269-.125,2.76,2.76,0,0,0,.474-.957c.028-.079.061-.173.093-.254.176.257.482.576.793.551a.47.47,0,0,0,.41-.373,10.779,10.779,0,0,0-.007-2.391c.161.226.323.458.477.686.06.573.1,1.148.1,1.62A.191.191,0,0,0,337.541,153.273Z" transform="translate(-321.989 -148.115)"/><path class="b" d="M407.021,152.765c-.136-1.01-.325-2.181-.444-2.9a.189.189,0,0,0,.16-.034.191.191,0,0,0,.036-.268l-.347-.455a.192.192,0,0,0-.341.149c0,.02.345,1.985.556,3.558a1.8,1.8,0,0,1-.315,1.437.847.847,0,0,1-.7.262.192.192,0,1,0-.024.382c.032,0,.064,0,.1,0a1.209,1.209,0,0,0,.911-.386A2.14,2.14,0,0,0,407.021,152.765Z" transform="translate(-390.016 -148.614)"/><path class="b" d="M393.357,256.086a.194.194,0,0,0,.009.269.081.081,0,0,1,.023.04.09.09,0,0,1-.029.043.191.191,0,1,0,.271.271.434.434,0,0,0,.141-.327.456.456,0,0,0-.15-.312A.19.19,0,0,0,393.357,256.086Z" transform="translate(-378.459 -250.673)"/><path class="b" d="M134.112,340.561h-1.34v-.191a.191.191,0,0,0-.383,0v.191H122.24a2.673,2.673,0,0,0,1.723.574h8.425v.383a.191.191,0,0,0,.191.191h1.532a.574.574,0,0,0,0-1.149Zm0,.766h-1.34v-.191H134.3l-.034-.1a.186.186,0,0,1,.034.1A.192.192,0,0,1,134.112,341.327Z" transform="translate(-119.889 -330.949)"/></g></g></svg>