<svg xmlns="http://www.w3.org/2000/svg" width="50" height="50" viewBox="0 0 50 50"><defs><style>.a{fill:#003f84;}</style></defs><g transform="translate(0 -0.487)"><g transform="translate(0 0.487)"><path class="a" d="M44.751,39.666a3.9,3.9,0,0,0-3-1.144l-2.893-2.9A21.747,21.747,0,0,0,13.273,2.2,21.749,21.749,0,0,0,6.367,37.615a21.685,21.685,0,0,0,28.794,1.72l2.887,2.89a3.929,3.929,0,0,0,1.142,3l4.1,4.107a3.932,3.932,0,0,0,5.555-5.565Zm-9.631-7.79a17.1,17.1,0,0,1-1.729,2.03,16.554,16.554,0,0,1-1.97,1.684A16.5,16.5,0,0,1,10.066,10.558,16.5,16.5,0,0,1,35.119,31.876Z" transform="translate(0 -0.487)"/><g transform="translate(8.335 7.592)"><path class="a" d="M304.454,146.277h2.978a1.924,1.924,0,0,1,1.849,1.688h2.6a4.531,4.531,0,0,0-4.454-4.278h-2.978A4.531,4.531,0,0,0,300,147.966h2.6A1.915,1.915,0,0,1,304.454,146.277Z" transform="translate(-292.589 -143.688)"/><path class="a" d="M188.715,251.288H172.584a3.752,3.752,0,0,0-2.154,1.222,1.117,1.117,0,0,0-.331.891,7.078,7.078,0,0,0,3.527,4.987,15.794,15.794,0,0,0,6.743,2.325,20.1,20.1,0,0,0,2.387.145,19.278,19.278,0,0,0,4.324-.482,14.908,14.908,0,0,0,4.811-1.989,7.1,7.1,0,0,0,3.527-4.987,1.233,1.233,0,0,0-.331-.891,3.752,3.752,0,0,0-2.154-1.222Z" transform="translate(-169.409 -245.716)"/><path class="a" d="M180.525,373.4a16.159,16.159,0,0,1-4.257,1.947,20.893,20.893,0,0,1-6.018.86c-.15,0-.306,0-.456-.005a18.708,18.708,0,0,1-9.819-2.8,11.5,11.5,0,0,1-2.771-2.5c-.176-.228-.306-.186-.306.1v7.219a3.246,3.246,0,0,0,3.169,3.314h20.352a3.025,3.025,0,0,0,1.574-.44,3.333,3.333,0,0,0,1.6-2.874v-7.214c0-.285-.129-.326-.305-.1A11.347,11.347,0,0,1,180.525,373.4Z" transform="translate(-156.9 -358.997)"/></g></g></g></svg>