<svg xmlns="http://www.w3.org/2000/svg" width="50.063" height="49.695" viewBox="0 0 50.063 49.695"><defs><style>.a{fill:#003f84;}</style></defs><g transform="translate(0 -3.4)"><g transform="translate(0 3.4)"><path class="a" d="M240.718,6.106h4.8a3.762,3.762,0,0,1,3.68,3.015h2.739A6.471,6.471,0,0,0,245.519,3.4h-4.8A6.471,6.471,0,0,0,234.3,9.121h2.739A3.756,3.756,0,0,1,240.718,6.106Z" transform="translate(-221.618 -3.4)"/><path class="a" d="M26.275,144.291a27.218,27.218,0,0,0,14.618,3.9,27.232,27.232,0,0,0,14.618-3.9c3.5-2.257,5.526-5.174,5.775-8.264a5.1,5.1,0,0,0-4-1.927H24.5a5.1,5.1,0,0,0-4,1.927C20.749,139.117,22.779,142.029,26.275,144.291Z" transform="translate(-19.391 -127.026)"/><path class="a" d="M363.1,439.723a1.534,1.534,0,0,0,1.532,1.532h.633a1.534,1.534,0,0,0,1.532-1.532V438.5h-3.7v1.223Z" transform="translate(-343.448 -414.952)"/><path class="a" d="M5.109,263.252h22.7V259.8a1.544,1.544,0,0,1,.465-1.1l5.179-5.093a1.549,1.549,0,0,1,1.088-.444H43V243a12.642,12.642,0,0,1-.785,1.38,16.46,16.46,0,0,1-4.925,4.73,27.816,27.816,0,0,1-11.777,4.01V254.8a3.7,3.7,0,0,1-3.7,3.7h-.633a3.7,3.7,0,0,1-3.7-3.7v-1.678A27.744,27.744,0,0,1,5.71,249.11a16.46,16.46,0,0,1-4.925-4.73A12.65,12.65,0,0,1,0,243v15.143A5.112,5.112,0,0,0,5.109,263.252Z" transform="translate(0 -230.032)"/><g transform="translate(29.215 24.366)"><path class="a" d="M546.284,453.6a2.776,2.776,0,0,0-1.948.812l-3.74,3.767a2.723,2.723,0,0,0-.8,1.932v16.074a2.986,2.986,0,0,0,.027.384,2.744,2.744,0,0,0,2.717,2.36H557.9a2.747,2.747,0,0,0,2.744-2.744V456.339a2.741,2.741,0,0,0-2.192-2.685,2.639,2.639,0,0,0-.547-.054H546.284Zm8.654,2.706H557.9a.037.037,0,0,1,.038.038V476.2a.034.034,0,0,1-.032.027H542.544a.037.037,0,0,1-.038-.038V460.668h1.986a2.248,2.248,0,0,0,2.246-2.246v-2.116h8.2Z" transform="translate(-539.8 -453.6)"/><path class="a" d="M623.347,617.3h-5.894a1.36,1.36,0,0,0-1.169.671,1.306,1.306,0,0,0-.184.677v.005a1.354,1.354,0,0,0,1.353,1.353h9.888a1.353,1.353,0,0,0,0-2.706h-3.994Z" transform="translate(-611.97 -608.441)"/><path class="a" d="M627.341,774.8h-9.888a1.353,1.353,0,1,0,0,2.706h9.888a1.353,1.353,0,0,0,0-2.706Z" transform="translate(-611.97 -757.417)"/><path class="a" d="M627.341,696.1h-9.888a1.353,1.353,0,1,0,0,2.706h9.888a1.353,1.353,0,0,0,0-2.706Z" transform="translate(-611.97 -682.975)"/></g></g></g></svg>