<svg xmlns="http://www.w3.org/2000/svg" width="65" height="52.929" viewBox="0 0 65 52.929"><defs><style>.a{fill:#fff;}</style></defs><g transform="translate(0 -86.72)"><g transform="translate(0 86.72)"><path class="a" d="M819.145,273a7.226,7.226,0,0,0,2.471,5.456c3.167-.125,5.512-.94,5.512-6.361V252.442a3.224,3.224,0,0,0-3.222-3.222h-4.767L819.145,273Z" transform="translate(-762.128 -237.91)"/><path class="a" d="M88.192,107.391a15.655,15.655,0,0,1,3.25-.348,15.394,15.394,0,0,1,5.213.9h24.8a1.74,1.74,0,1,1,0,3.48H102.216a15.436,15.436,0,0,1,3.195,4.461H121.46a1.74,1.74,0,0,1,0,3.48H106.58a15.462,15.462,0,0,1-.432,7.892.443.443,0,0,0-.014.049l17.643-.021,7.711-.014a9.02,9.02,0,0,1-1.844-5.456V87.91a1.194,1.194,0,0,0-1.19-1.19H81.128a1.194,1.194,0,0,0-1.19,1.19v24.276A15.454,15.454,0,0,1,88.192,107.391Zm27.129-14.859h6.069a1.74,1.74,0,0,1,0,3.48h-6.069a1.74,1.74,0,1,1,0-3.48Zm0,7.628h6.069a1.74,1.74,0,0,1,0,3.48h-6.069a1.74,1.74,0,0,1,0-3.48Zm-13.237-2.13V93.582a.87.87,0,0,1,.87-.87h3.369a4.873,4.873,0,0,1,2,.348,2.959,2.959,0,0,1,1.364,1.176,3.082,3.082,0,0,1,.48,1.643,2.9,2.9,0,0,1-.438,1.538c-.049.077-.1.146-.146.216a2.537,2.537,0,0,1,.376.4c.007.014.021.028.028.042a3.019,3.019,0,0,1,.613,1.886,3.456,3.456,0,0,1-.355,1.552,3.11,3.11,0,0,1-.919,1.148,3.6,3.6,0,0,1-1.288.592,6.782,6.782,0,0,1-1.663.174h-3.417a.87.87,0,0,1-.87-.87V98.03Zm-10.989,0a5.648,5.648,0,0,1,1.434-3.939,4.937,4.937,0,0,1,3.723-1.531,5.207,5.207,0,0,1,2.687.717,4.779,4.779,0,0,1,1.858,2.018,6.3,6.3,0,0,1,.613,2.742v.049a6.156,6.156,0,0,1-.647,2.84,4.657,4.657,0,0,1-1.914,2,5.333,5.333,0,0,1-2.6.661,5.163,5.163,0,0,1-2.721-.738,4.76,4.76,0,0,1-1.837-2.032,5.98,5.98,0,0,1-.6-2.617A1.332,1.332,0,0,1,91.095,98.03Zm-7.454,1.963a.874.874,0,0,1,.752-.849L85.464,99a.85.85,0,0,1,.675.195.9.9,0,0,1,.313.633,1.8,1.8,0,0,0,.16.863c.021.028.084.09.3.09a.555.555,0,0,0,.306-.07.2.2,0,0,0,.09-.1,2.958,2.958,0,0,0,.077-.835V93.582a.87.87,0,0,1,.87-.87h1.19a.87.87,0,0,1,.87.87v6.111a5.171,5.171,0,0,1-.348,2.095,2.8,2.8,0,0,1-1.239,1.357,3.364,3.364,0,0,1-.536.23,3.931,3.931,0,0,1-1.267.2,3.177,3.177,0,0,1-2.45-.96A3.613,3.613,0,0,1,83.641,99.992Z" transform="translate(-74.375 -86.72)"/><path class="a" d="M442.279,214.018a.468.468,0,0,0,.237-.132.448.448,0,0,0,.063-.264.632.632,0,0,0-.077-.32.219.219,0,0,0-.139-.1,4.205,4.205,0,0,0-1.1-.084h-.926v.967h1.072A3.129,3.129,0,0,0,442.279,214.018Z" transform="translate(-409.691 -204.323)"/><path class="a" d="M285.117,215.632a1.988,1.988,0,0,0,1.566-.661,3,3,0,0,0,.633-2.088v-.049a3.791,3.791,0,0,0-.292-1.51,1.981,1.981,0,0,0-.752-.891,2.09,2.09,0,0,0-1.134-.313,2.153,2.153,0,0,0-1.566.626,2.934,2.934,0,0,0-.633,2.088v.174a2.733,2.733,0,0,0,.64,1.963A1.93,1.93,0,0,0,285.117,215.632Z" transform="translate(-263.247 -201.532)"/><path class="a" d="M442.158,268.628a1.12,1.12,0,0,0,.383-.125.415.415,0,0,0,.146-.174.709.709,0,0,0,.07-.341.572.572,0,0,0-.1-.376.459.459,0,0,0-.271-.188,3.468,3.468,0,0,0-1.037-.1h-1.2v1.343H441.5A4.73,4.73,0,0,0,442.158,268.628Z" transform="translate(-409.507 -254.751)"/><path class="a" d="M2.613,434.68a2.581,2.581,0,0,0,1.858-.779l3.682-3.744.619-.626.452-.466a1.852,1.852,0,0,0,.153-.174,13.71,13.71,0,0,0,19.738-4.809c.153-.285.3-.578.438-.87s.251-.578.362-.87c.007-.014.014-.035.021-.049a13.668,13.668,0,0,0-.856-11.365,13.833,13.833,0,0,0-3.932-4.461,13.636,13.636,0,0,0-8.087-2.645,13.9,13.9,0,0,0-3.25.39,13.56,13.56,0,0,0-2.916,1.079,13.8,13.8,0,0,0-5.331,4.781,13.981,13.981,0,0,0-.87,1.545,14.189,14.189,0,0,0-.87,2.332A13.7,13.7,0,0,0,5.7,425.228a1.7,1.7,0,0,0-.2.188l-.425.431-.619.633-3.71,3.772a2.6,2.6,0,0,0,1.865,4.426Zm11.205-26.2a9.5,9.5,0,0,1,3.25-.564,9.593,9.593,0,0,1,6.988,3.014,9.7,9.7,0,0,1,2.116,3.48,9.6,9.6,0,0,1-.738,7.879c-.014.021-.021.042-.035.063a8.922,8.922,0,0,1-.571.87,8.739,8.739,0,0,1-.724.87,9.614,9.614,0,0,1-14.149-.07,10.969,10.969,0,0,1-.87-1.1c-.146-.209-.278-.431-.4-.654-.035-.063-.07-.125-.1-.195-.077-.139-.146-.285-.216-.425a9.611,9.611,0,0,1,5.457-13.168Z" transform="translate(0 -381.751)"/></g></g></svg>