<svg xmlns="http://www.w3.org/2000/svg" width="65" height="65" viewBox="0 0 65 65"><defs><style>.a{fill:#fff;}</style></defs><g transform="translate(-4.98)"><g transform="translate(4.98)"><path class="a" d="M16.065,206.053c.3-.384.611-.762.933-1.126.412-.474.844-.94,1.3-1.386a27.225,27.225,0,0,1,5.381-4.18v-.453A1.908,1.908,0,0,0,21.769,197H19.648a1.134,1.134,0,0,0-.94.487l-3.13,4.427-.762-1.606,1.215-2.553a.529.529,0,0,0-.474-.755h-2.43a.526.526,0,0,0-.474.755l1.215,2.553-.748,1.579L10.066,197.5a1.159,1.159,0,0,0-.947-.5H6.888a1.908,1.908,0,0,0-1.908,1.908V211.6h7.735A27.423,27.423,0,0,1,16.065,206.053Z" transform="translate(-4.98 -183.798)"/><path class="a" d="M51.48,6.15A6.15,6.15,0,1,0,57.63,0,6.157,6.157,0,0,0,51.48,6.15Z" transform="translate(-48.288)"/><path class="a" d="M697.343,197a1.134,1.134,0,0,0-.94.487l-3.13,4.427-.762-1.606,1.215-2.553a.529.529,0,0,0-.474-.755h-2.43a.526.526,0,0,0-.474.755l1.215,2.553-.748,1.579-3.047-4.386a1.159,1.159,0,0,0-.947-.5H684.59a1.908,1.908,0,0,0-1.908,1.908v.487a27.05,27.05,0,0,1,5.313,4.139c.467.467.913.947,1.338,1.435.3.35.6.714.885,1.078a27.111,27.111,0,0,1,3.349,5.546h7.8V198.908A1.908,1.908,0,0,0,699.464,197Z" transform="translate(-636.704 -183.798)"/><path class="a" d="M729.181,6.15A6.15,6.15,0,1,0,735.331,0,6.157,6.157,0,0,0,729.181,6.15Z" transform="translate(-680.012)"/><path class="a" d="M767.233,787.466,758.8,781a27.068,27.068,0,0,1-3.933,4.969c-.124.124-.254.247-.384.371l8.573,6.569a3.431,3.431,0,0,0,4.18-5.443Z" transform="translate(-703.574 -728.616)"/><path class="a" d="M362.564,545.108a1.908,1.908,0,0,0-1.908-1.908h-2.121a1.134,1.134,0,0,0-.94.487l-3.13,4.427-.762-1.606,1.215-2.553a.529.529,0,0,0-.474-.755h-2.43a.526.526,0,0,0-.474.755l1.215,2.553-.748,1.579-3.041-4.386a1.159,1.159,0,0,0-.947-.5h-2.231a1.908,1.908,0,0,0-1.908,1.908V557.8h18.69V545.108Z" transform="translate(-320.887 -506.798)"/><path class="a" d="M396.53,358.6a6.15,6.15,0,1,0-6.15-6.15A6.157,6.157,0,0,0,396.53,358.6Z" transform="translate(-364.194 -323.068)"/><path class="a" d="M123.011,250.129a25.095,25.095,0,0,0,19.654,0,25.19,25.19,0,0,0,7.484-4.935c.183-.172.367-.35.543-.529a25.618,25.618,0,0,0,3.735-4.8,25.967,25.967,0,0,0,1.671-3.308,25.862,25.862,0,0,0,0-19.864c-.177-.426-.367-.851-.57-1.263a25.413,25.413,0,0,0-12.87-12.32,25.094,25.094,0,0,0-19.654,0,25.283,25.283,0,0,0-8.027,5.464,25.5,25.5,0,0,0-4.842,6.85c-.2.412-.394.837-.57,1.263a25.672,25.672,0,0,0,5.413,27.977A25.345,25.345,0,0,0,123.011,250.129Zm-4.319-34.71c.136-.172.272-.343.414-.508.326-.391.666-.769,1.032-1.133a17.828,17.828,0,0,1,25.407,0q.581.587,1.1,1.215c.115.144.231.281.346.432a18.311,18.311,0,0,1-1.447,24.037,17.82,17.82,0,0,1-25.4,0,18.332,18.332,0,0,1-1.453-24.044Z" transform="translate(-100.539 -188.52)"/></g></g></svg>