<svg xmlns="http://www.w3.org/2000/svg" width="65" height="59.548" viewBox="0 0 65 59.548"><defs><style>.a{fill:#fff;}</style></defs><g transform="translate(-107.7 -24.943)"><g transform="translate(107.7 30.943)"><path class="a" d="M381.7,352.4a2.158,2.158,0,0,0,2.155,2.155H411.06a2.158,2.158,0,0,0,2.155-2.155v-.044a2.158,2.158,0,0,0-2.155-2.155h-27.2a2.158,2.158,0,0,0-2.155,2.155l-.009.044Z" transform="translate(-357.6 -319.398)"/><path class="a" d="M381.7,446.3a2.158,2.158,0,0,0,2.155,2.155h19.658a2.158,2.158,0,0,0,2.155-2.155v-.044a2.158,2.158,0,0,0-2.155-2.155H383.864a2.158,2.158,0,0,0-2.155,2.155l-.009.044Z" transform="translate(-357.6 -405.039)"/><path class="a" d="M381.7,540.1a2.158,2.158,0,0,0,2.155,2.155h36.59A2.158,2.158,0,0,0,422.6,540.1v-.044a2.158,2.158,0,0,0-2.155-2.155h-36.59a2.158,2.158,0,0,0-2.155,2.155v.044Z" transform="translate(-357.6 -490.588)"/><g transform="translate(0 -6)"><path class="a" d="M383.955,25.654h27.2a2.158,2.158,0,0,0,2.155-2.155v-.044A2.158,2.158,0,0,0,411.16,21.3h-27.2a2.158,2.158,0,0,0-2.155,2.155V23.5A2.147,2.147,0,0,0,383.955,25.654Z" transform="translate(-357.691 -19.427)"/><path class="a" d="M381.7,117.4a2.158,2.158,0,0,0,2.155,2.155h36.59A2.158,2.158,0,0,0,422.6,117.4v-.044a2.158,2.158,0,0,0-2.155-2.155h-36.59a2.158,2.158,0,0,0-2.155,2.155v.044Z" transform="translate(-357.6 -105.067)"/><path class="a" d="M381.7,211.2a2.158,2.158,0,0,0,2.155,2.155h36.59A2.158,2.158,0,0,0,422.6,211.2v-.044A2.158,2.158,0,0,0,420.445,209h-36.59a2.158,2.158,0,0,0-2.155,2.155v.044Z" transform="translate(-357.6 -190.617)"/><path class="a" d="M108,137.171V148.2h17.468v-11.03a1.73,1.73,0,0,0-1.786-1.662h-1.988a1.105,1.105,0,0,0-.88.422l-2.929,3.844-.712-1.39,1.135-2.225a.462.462,0,0,0-.449-.66h-2.278a.468.468,0,0,0-.449.66l1.135,2.225-.7,1.372-2.832-3.817a1.1,1.1,0,0,0-.888-.431h-2.085A1.717,1.717,0,0,0,108,137.171Z" transform="translate(-107.974 -123.582)"/><path class="a" d="M151.848,10.7A5.348,5.348,0,1,0,146.5,5.348,5.357,5.357,0,0,0,151.848,10.7Z" transform="translate(-143.087)"/></g><path class="a" d="M107.726,477.1h17.468v-11.03a1.73,1.73,0,0,0-1.786-1.662h-1.988a1.1,1.1,0,0,0-.88.422l-2.929,3.844-.712-1.39,1.135-2.225a.462.462,0,0,0-.449-.66h-2.278a.468.468,0,0,0-.449.66l1.135,2.225-.7,1.372-2.832-3.817a1.1,1.1,0,0,0-.888-.431h-2.085a1.73,1.73,0,0,0-1.786,1.662l.026,11.03Z" transform="translate(-107.7 -423.553)"/><path class="a" d="M146.5,334.248a5.348,5.348,0,1,0,5.348-5.348A5.357,5.357,0,0,0,146.5,334.248Z" transform="translate(-143.087 -299.971)"/></g></g></svg>