<svg xmlns="http://www.w3.org/2000/svg" width="41.131" height="32.184" viewBox="0 0 41.131 32.184"><defs><style>.a{fill:#cdcdcd;opacity:0.3;}</style></defs><path class="a" d="M41.131,11.154a23.413,23.413,0,0,1-1.51,8.54,24.64,24.64,0,0,1-3.776,6.681,17.214,17.214,0,0,1-5,4.3,10.729,10.729,0,0,1-5.17,1.51,2.964,2.964,0,0,1-2.266-.929,2.858,2.858,0,0,1-.871-1.975A2.818,2.818,0,0,1,23.18,27.3a5.766,5.766,0,0,1,2.382-1.278,10.8,10.8,0,0,0,2.324-1.162,16.073,16.073,0,0,0,2.44-1.917,14.6,14.6,0,0,0,2.091-2.5,8.772,8.772,0,0,0,1.278-2.9,9.607,9.607,0,0,1-1.278.116H31.255a8.542,8.542,0,0,1-4.067-.871,8.714,8.714,0,0,1-2.672-2.149,8.168,8.168,0,0,1-1.51-2.788,9.233,9.233,0,0,1-.465-2.672A9.014,9.014,0,0,1,25.155,2.73,8.846,8.846,0,0,1,31.836,0a7.983,7.983,0,0,1,4.183,1.046A9.238,9.238,0,0,1,38.865,3.66,11.978,11.978,0,0,1,40.55,7.2,13.939,13.939,0,0,1,41.131,11.154Zm-22.541,0a23.413,23.413,0,0,1-1.51,8.54A24.64,24.64,0,0,1,13.3,26.374a17.214,17.214,0,0,1-5,4.3,10.729,10.729,0,0,1-5.17,1.51,2.964,2.964,0,0,1-2.266-.929A2.858,2.858,0,0,1,0,29.279,2.818,2.818,0,0,1,.639,27.3a5.766,5.766,0,0,1,2.382-1.278,10.8,10.8,0,0,0,2.324-1.162,16.073,16.073,0,0,0,2.44-1.917,14.6,14.6,0,0,0,2.091-2.5,8.772,8.772,0,0,0,1.278-2.9,9.607,9.607,0,0,1-1.278.116H8.714a8.542,8.542,0,0,1-4.067-.871,8.714,8.714,0,0,1-2.672-2.149,8.168,8.168,0,0,1-1.51-2.788A9.233,9.233,0,0,1,0,9.179,9.014,9.014,0,0,1,2.614,2.73,8.846,8.846,0,0,1,9.3,0a7.983,7.983,0,0,1,4.183,1.046A9.238,9.238,0,0,1,16.325,3.66,11.978,11.978,0,0,1,18.009,7.2,13.939,13.939,0,0,1,18.59,11.154Z"/></svg>