<svg xmlns="http://www.w3.org/2000/svg" width="50" height="49.516" viewBox="0 0 50 49.516"><defs><style>.a{fill:#003f84;}</style></defs><g transform="translate(0 -4.598)"><path class="a" d="M5.206,405.279c.833-4.778,2.54-10.86,4.211-12.945a13.719,13.719,0,0,0-1.041,6.072c.158,1.366,1.71,3.165,1.5,4.47a9.362,9.362,0,0,1-.686,1.855.98.98,0,0,0,.9,1.359H24.335a.974.974,0,0,0,.84-.475,13.282,13.282,0,0,1,4.583-19.438c-.069-.116-.139-.232-.212-.347-1.667-2.625-3.892-3.52-6.379-4.306a2.183,2.183,0,0,0-2.714,1.387c-.687,1.973-1.732,5.407-2.447,7.8a.823.823,0,0,1-1.578,0c-.715-2.4-1.76-5.829-2.447-7.8a2.183,2.183,0,0,0-2.714-1.387c-2.487.787-4.712,1.682-6.379,4.306-1.871,2.947-2.577,6.6-3.327,10.04-.653,3-1.158,6.05-1.553,9.115a.98.98,0,0,0,.973,1.1H4.24A.98.98,0,0,0,5.206,405.279Z" transform="translate(0 -355.801)"/><path class="a" d="M137.8,4.6a9.679,9.679,0,0,0-7.354,3.92c-1.959,2.528-1.676,5.528-2.433,8.475A31.771,31.771,0,0,1,127,20.25a6.3,6.3,0,0,0,5.417-.6c1.443,1.251,3.325,3.384,5.384,3.384s3.941-2.134,5.384-3.384a6.3,6.3,0,0,0,5.417.6,31.774,31.774,0,0,1-1.014-3.256c-.758-2.947-.474-5.947-2.433-8.475A9.679,9.679,0,0,0,137.8,4.6Z" transform="translate(-120.582)"/><path class="a" d="M486.512,469.9a12.01,12.01,0,1,0,12.01,12.01A11.957,11.957,0,0,0,486.512,469.9Zm6.877,8.757-8.66,8.66-.3.3c-.02.02-.04.038-.06.056a1.262,1.262,0,0,1-1.726-.056l-3-3a1.263,1.263,0,0,1,1.786-1.786l2.111,2.111.713-.713,7.357-7.357a1.263,1.263,0,0,1,1.786,1.786Z" transform="translate(-448.523 -439.81)"/></g></svg>