<svg xmlns="http://www.w3.org/2000/svg" width="145" height="44" viewBox="0 0 145 44">
  <g id="Apple-Store" transform="translate(0.023 0.5)">
    <rect id="button" width="144" height="43" rx="10" stroke-width="1" fill="none" stroke="#fff" transform="translate(0.477)"/>
    <path id="Download-on-the" d="M.615-6.341H2.791a2.883,2.883,0,0,1,2.2.837,3.26,3.26,0,0,1,.791,2.331A3.272,3.272,0,0,1,4.994-.837,2.881,2.881,0,0,1,2.791,0H.615Zm.791.712V-.712H2.738a2.13,2.13,0,0,0,1.657-.635,2.6,2.6,0,0,0,.58-1.817A2.63,2.63,0,0,0,4.4-4.992a2.125,2.125,0,0,0-1.659-.637ZM10.928-.611A2.041,2.041,0,0,1,9.338.044,2.041,2.041,0,0,1,7.747-.611a2.519,2.519,0,0,1-.593-1.758,2.519,2.519,0,0,1,.593-1.758,2.041,2.041,0,0,1,1.591-.655,2.041,2.041,0,0,1,1.591.655,2.519,2.519,0,0,1,.593,1.758A2.519,2.519,0,0,1,10.928-.611ZM9.338-.637A1.257,1.257,0,0,0,10.373-1.1a1.97,1.97,0,0,0,.371-1.272,1.969,1.969,0,0,0-.371-1.274A1.259,1.259,0,0,0,9.338-4.1,1.257,1.257,0,0,0,8.3-3.641a1.97,1.97,0,0,0-.371,1.272A1.962,1.962,0,0,0,8.3-1.1,1.258,1.258,0,0,0,9.338-.637Zm9.7-4.1L17.713,0H16.94L15.858-3.683h-.018L14.76,0h-.773L12.659-4.737h.756l.962,3.872H14.4l1.085-3.872h.738L17.3-.866h.018l.962-3.872ZM20.41,0V-4.737h.721v.769h.018A1.623,1.623,0,0,1,22.7-4.781a1.638,1.638,0,0,1,1.235.468,1.759,1.759,0,0,1,.453,1.277V0h-.765V-2.9a1.229,1.229,0,0,0-.3-.888,1.133,1.133,0,0,0-.855-.308,1.239,1.239,0,0,0-.938.369,1.357,1.357,0,0,0-.354.98V0Zm5.752,0V-6.618h.765V0ZM32.27-.611a2.041,2.041,0,0,1-1.591.655,2.041,2.041,0,0,1-1.591-.655A2.519,2.519,0,0,1,28.5-2.369a2.519,2.519,0,0,1,.593-1.758,2.041,2.041,0,0,1,1.591-.655,2.041,2.041,0,0,1,1.591.655,2.519,2.519,0,0,1,.593,1.758A2.519,2.519,0,0,1,32.27-.611ZM30.679-.637A1.257,1.257,0,0,0,31.714-1.1a1.97,1.97,0,0,0,.371-1.272,1.969,1.969,0,0,0-.371-1.274A1.259,1.259,0,0,0,30.679-4.1a1.257,1.257,0,0,0-1.035.459,1.97,1.97,0,0,0-.371,1.272A1.962,1.962,0,0,0,29.646-1.1,1.258,1.258,0,0,0,30.679-.637Zm5.255.018a1.4,1.4,0,0,0,.96-.336,1.081,1.081,0,0,0,.38-.846v-.382L36.035-2.1q-1.081.066-1.081.76a.625.625,0,0,0,.266.527A1.17,1.17,0,0,0,35.934-.62Zm-.163.664a1.7,1.7,0,0,1-1.16-.382,1.274,1.274,0,0,1-.439-1.011,1.142,1.142,0,0,1,.457-.96,2.388,2.388,0,0,1,1.318-.4l1.327-.079v-.4a.836.836,0,0,0-.281-.677,1.214,1.214,0,0,0-.8-.237,1.187,1.187,0,0,0-.7.2.838.838,0,0,0-.354.532H34.4a1.287,1.287,0,0,1,.532-1A1.97,1.97,0,0,1,36.2-4.781a2.034,2.034,0,0,1,1.34.415,1.373,1.373,0,0,1,.5,1.114V0h-.725V-.822H37.3a1.508,1.508,0,0,1-.615.631A1.807,1.807,0,0,1,35.772.044Zm5.8,0a1.833,1.833,0,0,1-1.463-.666,2.6,2.6,0,0,1-.567-1.747A2.617,2.617,0,0,1,40.1-4.113a1.809,1.809,0,0,1,1.45-.668,1.872,1.872,0,0,1,.9.211,1.507,1.507,0,0,1,.613.6h.018v-2.65h.765V0h-.729V-.8h-.013a1.608,1.608,0,0,1-.626.626A1.844,1.844,0,0,1,41.572.044ZM41.708-4.1a1.223,1.223,0,0,0-1,.475,1.951,1.951,0,0,0-.38,1.257A1.949,1.949,0,0,0,40.7-1.11a1.225,1.225,0,0,0,1,.472,1.216,1.216,0,0,0,1-.479,1.947,1.947,0,0,0,.382-1.252,1.947,1.947,0,0,0-.382-1.252A1.216,1.216,0,0,0,41.708-4.1ZM52.064-.611a2.041,2.041,0,0,1-1.591.655,2.041,2.041,0,0,1-1.591-.655,2.519,2.519,0,0,1-.593-1.758,2.519,2.519,0,0,1,.593-1.758,2.041,2.041,0,0,1,1.591-.655,2.041,2.041,0,0,1,1.591.655,2.519,2.519,0,0,1,.593,1.758A2.519,2.519,0,0,1,52.064-.611ZM50.474-.637A1.257,1.257,0,0,0,51.509-1.1a1.97,1.97,0,0,0,.371-1.272,1.969,1.969,0,0,0-.371-1.274A1.259,1.259,0,0,0,50.474-4.1a1.257,1.257,0,0,0-1.035.459,1.97,1.97,0,0,0-.371,1.272A1.962,1.962,0,0,0,49.441-1.1,1.258,1.258,0,0,0,50.474-.637ZM54.182,0V-4.737H54.9v.769h.018a1.623,1.623,0,0,1,1.547-.813,1.638,1.638,0,0,1,1.235.468,1.759,1.759,0,0,1,.453,1.277V0H57.39V-2.9a1.229,1.229,0,0,0-.3-.888,1.133,1.133,0,0,0-.855-.308,1.239,1.239,0,0,0-.938.369,1.357,1.357,0,0,0-.354.98V0Zm8.832-5.805h.765v1.068H64.7V-4.1h-.923v2.843a.686.686,0,0,0,.143.479.582.582,0,0,0,.446.154A2.057,2.057,0,0,0,64.7-.65V0a2.29,2.29,0,0,1-.492.04,1.215,1.215,0,0,1-.916-.292,1.4,1.4,0,0,1-.275-.973V-4.1h-.659v-.633h.659ZM66.313,0V-6.618h.765v2.65H67.1a1.617,1.617,0,0,1,1.547-.813A1.691,1.691,0,0,1,69.9-4.3a1.732,1.732,0,0,1,.479,1.274V0h-.765V-2.887a1.212,1.212,0,0,0-.319-.89,1.181,1.181,0,0,0-.881-.323,1.289,1.289,0,0,0-.969.378,1.371,1.371,0,0,0-.367,1V0ZM74-4.109a1.25,1.25,0,0,0-.925.369,1.461,1.461,0,0,0-.406.971h2.606a1.4,1.4,0,0,0-.363-.971A1.2,1.2,0,0,0,74-4.109ZM75.26-1.354h.756a1.488,1.488,0,0,1-.65,1,2.21,2.21,0,0,1-1.314.393A2.034,2.034,0,0,1,72.467-.6a2.5,2.5,0,0,1-.587-1.749,2.576,2.576,0,0,1,.584-1.767,1.966,1.966,0,0,1,1.551-.664,1.9,1.9,0,0,1,1.5.626,2.473,2.473,0,0,1,.554,1.7v.3h-3.4v.044a1.509,1.509,0,0,0,.382,1.081,1.332,1.332,0,0,0,1.015.4,1.452,1.452,0,0,0,.767-.2A.918.918,0,0,0,75.26-1.354Z" transform="translate(46.477 15)" fill="#fff"/>
    <path id="App-Store" d="M7.859,0,6.892-2.856H2.864L1.9,0H.19L4.006-10.569H5.779L9.595,0Zm-3-8.811L3.281-4.175H6.475L4.9-8.811Zm9.844.776a3.017,3.017,0,0,1,2.443,1.106,4.471,4.471,0,0,1,.919,2.952,4.5,4.5,0,0,1-.912,2.948A2.968,2.968,0,0,1,14.736.081a3.053,3.053,0,0,1-1.509-.363A2.529,2.529,0,0,1,12.217-1.3h-.029V2.6H10.6V-7.954h1.531v1.318h.037a2.453,2.453,0,0,1,1.022-1.022A3.082,3.082,0,0,1,14.7-8.035Zm-.4,6.768a1.882,1.882,0,0,0,1.553-.74,3.084,3.084,0,0,0,.586-1.97,3.084,3.084,0,0,0-.586-1.97,1.882,1.882,0,0,0-1.553-.74,1.854,1.854,0,0,0-1.531.747,3.122,3.122,0,0,0-.593,1.963,3.132,3.132,0,0,0,.59,1.967A1.854,1.854,0,0,0,14.3-1.267ZM23.43-8.035a3.017,3.017,0,0,1,2.443,1.106,4.471,4.471,0,0,1,.919,2.952,4.5,4.5,0,0,1-.912,2.948A2.968,2.968,0,0,1,23.467.081a3.053,3.053,0,0,1-1.509-.363A2.529,2.529,0,0,1,20.947-1.3h-.029V2.6H19.329V-7.954h1.531v1.318H20.9a2.453,2.453,0,0,1,1.022-1.022A3.082,3.082,0,0,1,23.43-8.035Zm-.4,6.768a1.882,1.882,0,0,0,1.553-.74,3.084,3.084,0,0,0,.586-1.97,3.084,3.084,0,0,0-.586-1.97,1.882,1.882,0,0,0-1.553-.74A1.854,1.854,0,0,0,21.5-5.94,3.122,3.122,0,0,0,20.9-3.977a3.132,3.132,0,0,0,.59,1.967A1.854,1.854,0,0,0,23.027-1.267Zm8.181-1.677h1.619a1.706,1.706,0,0,0,.784,1.26,3.017,3.017,0,0,0,1.743.476A2.767,2.767,0,0,0,37-1.67a1.388,1.388,0,0,0,.648-1.172,1.261,1.261,0,0,0-.461-1.007A3.669,3.669,0,0,0,35.7-4.49l-1.37-.33a4.461,4.461,0,0,1-2.15-1.047,2.445,2.445,0,0,1-.692-1.8A2.71,2.71,0,0,1,32.56-9.888a4.306,4.306,0,0,1,2.772-.857,4.2,4.2,0,0,1,2.725.853,2.829,2.829,0,0,1,1.091,2.223h-1.6a1.673,1.673,0,0,0-.677-1.238A2.534,2.534,0,0,0,35.31-9.36a2.548,2.548,0,0,0-1.549.439,1.357,1.357,0,0,0-.6,1.143,1.114,1.114,0,0,0,.447.912,4,4,0,0,0,1.472.612l1.165.286A5.047,5.047,0,0,1,38.595-4.9a2.453,2.453,0,0,1,.721,1.857,2.834,2.834,0,0,1-1.1,2.347,4.682,4.682,0,0,1-2.981.868,4.548,4.548,0,0,1-2.86-.846A2.928,2.928,0,0,1,31.208-2.944Zm9.9-6.8h1.582v1.787h1.523V-6.7H42.686v4.446a1.065,1.065,0,0,0,.238.765.985.985,0,0,0,.736.245,3.834,3.834,0,0,0,.542-.037V-.029a3.865,3.865,0,0,1-.894.081,2.383,2.383,0,0,1-1.7-.494A2.247,2.247,0,0,1,41.1-2.095V-6.7H40V-7.954h1.1ZM51.511-1A3.539,3.539,0,0,1,48.772.1,3.563,3.563,0,0,1,46.025-1a4.2,4.2,0,0,1-1.018-2.974,4.21,4.21,0,0,1,1.022-2.974,3.553,3.553,0,0,1,2.743-1.106,3.548,3.548,0,0,1,2.739,1.1,4.216,4.216,0,0,1,1.018,2.977A4.2,4.2,0,0,1,51.511-1ZM47.19-1.948a1.9,1.9,0,0,0,1.582.725,1.892,1.892,0,0,0,1.578-.725,3.219,3.219,0,0,0,.568-2.029A3.235,3.235,0,0,0,50.35-6.01a1.888,1.888,0,0,0-1.578-.729,1.894,1.894,0,0,0-1.582.732,3.223,3.223,0,0,0-.571,2.029A3.223,3.223,0,0,0,47.19-1.948ZM53.8,0V-7.954H55.32v1.34h.029a1.856,1.856,0,0,1,.7-1.044,2.011,2.011,0,0,1,1.219-.377,1.916,1.916,0,0,1,.527.059v1.487a1.956,1.956,0,0,0-.7-.1,1.609,1.609,0,0,0-1.245.5,1.908,1.908,0,0,0-.461,1.344V0Zm8.02-6.76a1.926,1.926,0,0,0-1.425.571A2.261,2.261,0,0,0,59.766-4.7H63.8A2.17,2.17,0,0,0,63.23-6.2,1.863,1.863,0,0,0,61.824-6.76Zm1.97,4.431H65.31A2.58,2.58,0,0,1,64.189-.582,3.851,3.851,0,0,1,61.9.1,3.546,3.546,0,0,1,59.161-.992a4.18,4.18,0,0,1-1.007-2.955,4.312,4.312,0,0,1,1-2.988,3.412,3.412,0,0,1,2.673-1.121A3.335,3.335,0,0,1,64.431-7a4.108,4.108,0,0,1,.959,2.867v.557H59.758v.1a2.313,2.313,0,0,0,.593,1.659,2.068,2.068,0,0,0,1.575.626,2.266,2.266,0,0,0,1.2-.308A1.456,1.456,0,0,0,63.794-2.329Z" transform="translate(46.477 33)" fill="#fff"/>
    <path id="logo" d="M38.1,35.919c-1.191,1.734-2.424,3.458-4.369,3.494-1.915.036-2.529-1.129-4.714-1.129s-2.872,1.093-4.679,1.165c-1.878.07-3.307-1.873-4.508-3.6-2.454-3.53-4.327-9.982-1.808-14.336a6.989,6.989,0,0,1,5.9-3.566c1.845-.034,3.587,1.238,4.714,1.238s3.243-1.527,5.467-1.3A6.676,6.676,0,0,1,39.325,20.7a6.443,6.443,0,0,0-3.082,5.419,6.282,6.282,0,0,0,3.831,5.753A15.627,15.627,0,0,1,38.1,35.919ZM29.928,13.155A6.42,6.42,0,0,1,34.134,11a6.258,6.258,0,0,1-1.487,4.544,5.3,5.3,0,0,1-4.235,2.013A5.944,5.944,0,0,1,29.928,13.155Z" transform="translate(-5.532 -3.532)" fill="#fff"/>
  </g>
</svg>
