<svg xmlns="http://www.w3.org/2000/svg" width="145" height="44" viewBox="0 0 145 44">
  <g id="Group_1207" data-name="Group 1207" transform="translate(0.023 0.438)">
    <rect id="button" width="144" height="43" rx="10" stroke-width="1" fill="none" stroke="#fff" transform="translate(0.477 0.062)"/>
    <path id="Download-on" d="M.791,0V-6.4H2.755a2.705,2.705,0,0,1,2.017.771,2.718,2.718,0,0,1,.76,1.993v.875a2.709,2.709,0,0,1-.76,1.993A2.714,2.714,0,0,1,2.755,0Zm.866-5.717V-.677h1.1a1.765,1.765,0,0,0,1.4-.584,2.191,2.191,0,0,0,.512-1.5v-.883a2.178,2.178,0,0,0-.512-1.49,1.765,1.765,0,0,0-1.4-.584Zm5.418,3.3a2.618,2.618,0,0,1,.571-1.738A1.916,1.916,0,0,1,9.2-4.843a1.935,1.935,0,0,1,1.562.681,2.609,2.609,0,0,1,.573,1.74v.1a2.605,2.605,0,0,1-.571,1.74A1.929,1.929,0,0,1,9.206.092,1.932,1.932,0,0,1,7.648-.587a2.6,2.6,0,0,1-.573-1.738Zm.866.1a2.255,2.255,0,0,0,.319,1.248,1.055,1.055,0,0,0,.947.492,1.052,1.052,0,0,0,.94-.492,2.243,2.243,0,0,0,.321-1.248v-.1a2.237,2.237,0,0,0-.323-1.244,1.059,1.059,0,0,0-.947-.5,1.044,1.044,0,0,0-.938.5A2.26,2.26,0,0,0,7.94-2.421Zm6.389.593.1.576h.026l.123-.576.949-3.023h.694l.954,3.023.136.642h.026l.127-.642.747-3.023h.861L17.7,0H17l-.918-2.9-.2-.809-.026,0-.189.8L14.76,0h-.7l-1.38-4.755h.861Zm7.088-3.023.062.708a1.727,1.727,0,0,1,.6-.587,1.589,1.589,0,0,1,.815-.209,1.552,1.552,0,0,1,1.191.45A1.977,1.977,0,0,1,24.5-3V0h-.866V-2.984a1.286,1.286,0,0,0-.248-.892,1,1,0,0,0-.758-.264,1.22,1.22,0,0,0-.661.18,1.316,1.316,0,0,0-.459.492V0h-.866V-4.755Zm6,4.755h-.866V-6.855h.866Zm1.849-2.421a2.618,2.618,0,0,1,.571-1.738,1.916,1.916,0,0,1,1.551-.683,1.935,1.935,0,0,1,1.562.681,2.609,2.609,0,0,1,.573,1.74v.1a2.605,2.605,0,0,1-.571,1.74A1.929,1.929,0,0,1,31.4.092a1.932,1.932,0,0,1-1.558-.679,2.6,2.6,0,0,1-.573-1.738Zm.866.1a2.255,2.255,0,0,0,.319,1.248,1.055,1.055,0,0,0,.947.492,1.052,1.052,0,0,0,.94-.492,2.243,2.243,0,0,0,.321-1.248v-.1a2.237,2.237,0,0,0-.323-1.244,1.059,1.059,0,0,0-.947-.5,1.044,1.044,0,0,0-.938.5,2.26,2.26,0,0,0-.319,1.244ZM38.224,0q-.044-.215-.068-.38a2.79,2.79,0,0,1-.029-.332,2.019,2.019,0,0,1-.631.573,1.613,1.613,0,0,1-.837.231,1.554,1.554,0,0,1-1.132-.38,1.4,1.4,0,0,1-.389-1.048A1.228,1.228,0,0,1,35.69-2.4a2.576,2.576,0,0,1,1.5-.385h.94v-.47a.872.872,0,0,0-.255-.661,1,1,0,0,0-.721-.244,1.04,1.04,0,0,0-.679.213.641.641,0,0,0-.261.512h-.826l-.009-.026a1.151,1.151,0,0,1,.49-.949A2.012,2.012,0,0,1,37.2-4.843a1.963,1.963,0,0,1,1.3.411,1.456,1.456,0,0,1,.492,1.184v2.29a4.457,4.457,0,0,0,.026.492,2.531,2.531,0,0,0,.1.466ZM36.787-.633a1.541,1.541,0,0,0,.848-.242,1.149,1.149,0,0,0,.492-.554V-2.2h-.971a1.26,1.26,0,0,0-.837.264.789.789,0,0,0-.314.62.652.652,0,0,0,.2.5A.828.828,0,0,0,36.787-.633ZM40.772-2.29a3.173,3.173,0,0,1,.49-1.85,1.579,1.579,0,0,1,1.373-.7,1.7,1.7,0,0,1,.74.154,1.518,1.518,0,0,1,.552.448V-6.855h.866V0h-.708l-.1-.584a1.541,1.541,0,0,1-.571.505,1.719,1.719,0,0,1-.787.171,1.632,1.632,0,0,1-1.362-.631A2.621,2.621,0,0,1,40.772-2.2Zm.866.092a2.018,2.018,0,0,0,.294,1.154,1.028,1.028,0,0,0,.914.433,1.147,1.147,0,0,0,.65-.176,1.313,1.313,0,0,0,.431-.492V-3.5a1.333,1.333,0,0,0-.433-.468,1.144,1.144,0,0,0-.639-.174.989.989,0,0,0-.921.514,2.654,2.654,0,0,0-.3,1.336Zm7.922-.224a2.618,2.618,0,0,1,.571-1.738,1.916,1.916,0,0,1,1.551-.683,1.935,1.935,0,0,1,1.562.681,2.609,2.609,0,0,1,.573,1.74v.1a2.605,2.605,0,0,1-.571,1.74,1.929,1.929,0,0,1-1.556.677,1.932,1.932,0,0,1-1.558-.679,2.6,2.6,0,0,1-.573-1.738Zm.866.1a2.255,2.255,0,0,0,.319,1.248,1.055,1.055,0,0,0,.947.492,1.052,1.052,0,0,0,.94-.492,2.243,2.243,0,0,0,.321-1.248v-.1a2.237,2.237,0,0,0-.323-1.244,1.059,1.059,0,0,0-.947-.5,1.044,1.044,0,0,0-.938.5,2.26,2.26,0,0,0-.319,1.244Zm5.945-2.43.062.708a1.727,1.727,0,0,1,.6-.587,1.589,1.589,0,0,1,.815-.209,1.552,1.552,0,0,1,1.191.45A1.977,1.977,0,0,1,59.455-3V0H58.59V-2.984a1.286,1.286,0,0,0-.248-.892,1,1,0,0,0-.758-.264,1.22,1.22,0,0,0-.661.18,1.316,1.316,0,0,0-.459.492V0H55.6V-4.755Z" transform="translate(47.477 15.062)" fill="#fff"/>
    <path id="play" d="M7.881-3.7A4.468,4.468,0,0,1,7.068-.908,2.689,2.689,0,0,1,4.8.154,2.8,2.8,0,0,1,3.611-.088,2.457,2.457,0,0,1,2.717-.8V3.047H.938V-7.925h1.5l.176,1a2.643,2.643,0,0,1,.919-.85,2.572,2.572,0,0,1,1.249-.293A2.632,2.632,0,0,1,7.064-6.91a5.208,5.208,0,0,1,.817,3.058ZM6.108-3.853a3.861,3.861,0,0,0-.458-1.989,1.489,1.489,0,0,0-1.366-.773,1.774,1.774,0,0,0-.945.238,1.752,1.752,0,0,0-.623.663v3.582a1.656,1.656,0,0,0,.623.641,1.9,1.9,0,0,0,.959.223,1.527,1.527,0,0,0,1.359-.67A3.1,3.1,0,0,0,6.108-3.7ZM11.331,0H9.551V-11.426h1.78Zm6.76,0q-.1-.3-.157-.586a4.189,4.189,0,0,1-.084-.571,3.144,3.144,0,0,1-.963.934,2.45,2.45,0,0,1-1.337.377,2.634,2.634,0,0,1-1.9-.637,2.314,2.314,0,0,1-.663-1.75,2.068,2.068,0,0,1,.908-1.791,4.385,4.385,0,0,1,2.556-.641h1.384v-.7a1.287,1.287,0,0,0-.366-.974,1.453,1.453,0,0,0-1.047-.352,1.483,1.483,0,0,0-.967.293.93.93,0,0,0-.359.754H13.381l-.007-.044a1.963,1.963,0,0,1,.839-1.663,3.554,3.554,0,0,1,2.318-.725,3.39,3.39,0,0,1,2.234.7,2.475,2.475,0,0,1,.85,2.021v3.523a6.5,6.5,0,0,0,.066.941A5,5,0,0,0,19.893,0ZM15.908-1.274a2.238,2.238,0,0,0,1.212-.337,1.7,1.7,0,0,0,.714-.769V-3.552H16.421a1.784,1.784,0,0,0-1.216.385,1.168,1.168,0,0,0-.439.9.923.923,0,0,0,.3.721A1.221,1.221,0,0,0,15.908-1.274Zm8.086-1.9.176.791h.044L25.95-7.925H27.9L24.617,1.2a4.069,4.069,0,0,1-.886,1.414,2.157,2.157,0,0,1-1.619.586,2.766,2.766,0,0,1-.472-.044q-.253-.044-.487-.1l.2-1.377.271.022q.176.015.264.015a.977.977,0,0,0,.773-.33A2.8,2.8,0,0,0,23.13.623L23.423-.1l-2.878-7.83h1.941Z" transform="translate(99.477 35.062)" fill="#fff"/>
    <path id="play-2" data-name="play" d="M9.111-1.443a3.716,3.716,0,0,1-1.4,1.1A5.488,5.488,0,0,1,5.222.154,4.344,4.344,0,0,1,2.051-1.066,4.22,4.22,0,0,1,.806-4.219V-6.445A4.354,4.354,0,0,1,1.981-9.6a4.03,4.03,0,0,1,3.036-1.219,4.259,4.259,0,0,1,2.926.927A3.142,3.142,0,0,1,9.009-7.478l-.015.044H7.31a2.063,2.063,0,0,0-.626-1.417A2.3,2.3,0,0,0,5.039-9.39a2.192,2.192,0,0,0-1.783.828,3.21,3.21,0,0,0-.677,2.1v2.241A3.08,3.08,0,0,0,3.314-2.1a2.43,2.43,0,0,0,1.908.831,3.944,3.944,0,0,0,1.355-.194,1.875,1.875,0,0,0,.754-.458V-4.087H5.215V-5.42h3.9Zm1.626-2.593a4.317,4.317,0,0,1,.967-2.9,3.334,3.334,0,0,1,2.659-1.135,3.324,3.324,0,0,1,2.673,1.135,4.279,4.279,0,0,1,.974,2.9v.154a4.3,4.3,0,0,1-.974,2.915A3.327,3.327,0,0,1,14.377.154,3.347,3.347,0,0,1,11.7-.974a4.31,4.31,0,0,1-.967-2.908Zm1.78.154a3.539,3.539,0,0,0,.454,1.89,1.531,1.531,0,0,0,1.406.725,1.539,1.539,0,0,0,1.392-.725,3.451,3.451,0,0,0,.469-1.89v-.154A3.407,3.407,0,0,0,15.769-5.9a1.544,1.544,0,0,0-1.406-.74,1.531,1.531,0,0,0-1.392.74,3.516,3.516,0,0,0-.454,1.868Zm6.716-.154a4.317,4.317,0,0,1,.967-2.9,3.334,3.334,0,0,1,2.659-1.135,3.324,3.324,0,0,1,2.673,1.135,4.279,4.279,0,0,1,.974,2.9v.154a4.3,4.3,0,0,1-.974,2.915A3.327,3.327,0,0,1,22.874.154,3.347,3.347,0,0,1,20.2-.974a4.31,4.31,0,0,1-.967-2.908Zm1.78.154a3.539,3.539,0,0,0,.454,1.89,1.531,1.531,0,0,0,1.406.725,1.539,1.539,0,0,0,1.392-.725,3.451,3.451,0,0,0,.469-1.89v-.154A3.407,3.407,0,0,0,24.265-5.9a1.544,1.544,0,0,0-1.406-.74,1.531,1.531,0,0,0-1.392.74,3.516,3.516,0,0,0-.454,1.868Zm6.724.029a5.16,5.16,0,0,1,.828-3.054,2.664,2.664,0,0,1,2.3-1.165,2.5,2.5,0,0,1,1.249.3,2.639,2.639,0,0,1,.912.875L33.2-7.925H34.68V0a2.991,2.991,0,0,1-.945,2.366,3.918,3.918,0,0,1-2.681.835,5.248,5.248,0,0,1-1.249-.165A5.8,5.8,0,0,1,28.594,2.6l.381-1.4a4.308,4.308,0,0,0,.97.355,4.65,4.65,0,0,0,1.095.128,2.033,2.033,0,0,0,1.414-.414A1.652,1.652,0,0,0,32.9,0V-.813a2.49,2.49,0,0,1-.883.721A2.659,2.659,0,0,1,30.85.154,2.736,2.736,0,0,1,28.564-.908,4.413,4.413,0,0,1,27.737-3.7Zm1.78.154a3.111,3.111,0,0,0,.436,1.747A1.508,1.508,0,0,0,31.3-1.3a1.823,1.823,0,0,0,.963-.238,1.757,1.757,0,0,0,.634-.685V-5.691a1.9,1.9,0,0,0-.641-.677,1.738,1.738,0,0,0-.941-.245,1.464,1.464,0,0,0-1.359.769,3.96,3.96,0,0,0-.443,1.992ZM38.452,0h-1.78V-11.426h1.78Zm5.391.154a3.446,3.446,0,0,1-2.684-1.1,4.052,4.052,0,0,1-1-2.831v-.293a4.207,4.207,0,0,1,.992-2.867,3.139,3.139,0,0,1,2.487-1.132,3.1,3.1,0,0,1,2.457.97,3.8,3.8,0,0,1,.853,2.6V-3.45H42l-.015.037a2.5,2.5,0,0,0,.553,1.545,1.749,1.749,0,0,0,1.41.6,3.811,3.811,0,0,0,1.23-.176,4.031,4.031,0,0,0,.989-.505l.571,1.165a3.687,3.687,0,0,1-1.187.667A4.971,4.971,0,0,1,43.843.154Zm-.205-6.8a1.335,1.335,0,0,0-1.084.524,2.579,2.579,0,0,0-.527,1.329l.015.037h3.142v-.183a1.9,1.9,0,0,0-.385-1.23A1.4,1.4,0,0,0,43.638-6.643Z" transform="translate(47.477 35.062)" fill="#fff"/>
    <path id="logo" d="M16,37.3V13.86A2.068,2.068,0,0,1,17.162,12L30.72,25.576,17.157,39.156A2.068,2.068,0,0,1,16,37.3Zm19.021-7.416L20.2,38.452,31.889,26.745Zm4.608-5.946a2.07,2.07,0,0,1,.022,3.269L36.5,29.026l-3.446-3.45L36.5,22.127ZM20.205,12.707l14.814,8.564-3.13,3.134Z" transform="translate(-5.268 -3.479)" fill="#fff"/>
  </g>
</svg>
