<svg xmlns="http://www.w3.org/2000/svg" width="30" height="30" viewBox="0 0 30 30"><defs><style>.a{fill:none;}.b{fill:#fa6457;}</style></defs><path class="a" d="M0,0H30V30H0Z"/><path class="b" d="M8.481,20.887H6V25.85a2.481,2.481,0,0,0,2.481,2.481h4.962V25.85H8.481Zm0-12.406h4.962V6H8.481A2.481,2.481,0,0,0,6,8.481v4.962H8.481ZM25.85,6H20.887V8.481H25.85v4.962h2.481V8.481A2.481,2.481,0,0,0,25.85,6Zm0,19.85H20.887v2.481H25.85a2.481,2.481,0,0,0,2.481-2.481V20.887H25.85ZM17.166,12.2a4.962,4.962,0,1,0,4.962,4.962A4.961,4.961,0,0,0,17.166,12.2Zm0,7.444a2.481,2.481,0,1,1,2.481-2.481A2.481,2.481,0,0,1,17.166,19.647Z" transform="translate(-2.166 -2.166)"/></svg>